G75*
G70*
%OFA0B0*%
%FSLAX24Y24*%
%IPPOS*%
%LPD*%
%AMOC8*
5,1,8,0,0,1.08239X$1,22.5*
%
%ADD10C,0.0000*%
%ADD11C,0.0030*%
%ADD12C,0.0050*%
%ADD13C,0.0040*%
%ADD14C,0.0060*%
%ADD15C,0.0100*%
%ADD16C,0.0080*%
%ADD17C,0.0200*%
%ADD18R,0.0500X0.0750*%
%ADD19R,0.0300X0.0700*%
%ADD20R,0.0500X0.0300*%
%ADD21R,0.0150X0.0200*%
%ADD22R,0.0200X0.0150*%
D10*
X000181Y000685D02*
X000181Y020370D01*
X019866Y020370D01*
X019866Y000685D01*
X000181Y000685D01*
D11*
X000446Y000874D02*
X000495Y000825D01*
X000592Y000825D01*
X000640Y000874D01*
X000640Y000922D01*
X000592Y000970D01*
X000543Y000970D01*
X000592Y000970D02*
X000640Y001019D01*
X000640Y001067D01*
X000592Y001116D01*
X000495Y001116D01*
X000446Y001067D01*
X000741Y000874D02*
X000789Y000874D01*
X000789Y000825D01*
X000741Y000825D01*
X000741Y000874D01*
X000888Y000874D02*
X000937Y000825D01*
X001034Y000825D01*
X001082Y000874D01*
X001082Y000922D01*
X001034Y000970D01*
X000985Y000970D01*
X001034Y000970D02*
X001082Y001019D01*
X001082Y001067D01*
X001034Y001116D01*
X000937Y001116D01*
X000888Y001067D01*
X001183Y001116D02*
X001183Y000922D01*
X001280Y000825D01*
X001376Y000922D01*
X001376Y001116D01*
X001620Y002575D02*
X001717Y002575D01*
X001765Y002624D01*
X001765Y002720D01*
X001668Y002720D01*
X001571Y002624D02*
X001620Y002575D01*
X001571Y002624D02*
X001571Y002817D01*
X001620Y002866D01*
X001717Y002866D01*
X001765Y002817D01*
X001866Y002866D02*
X001866Y002575D01*
X002060Y002575D02*
X001866Y002866D01*
X002060Y002866D02*
X002060Y002575D01*
X002161Y002575D02*
X002306Y002575D01*
X002354Y002624D01*
X002354Y002817D01*
X002306Y002866D01*
X002161Y002866D01*
X002161Y002575D01*
X002353Y002602D02*
X002498Y002602D01*
X002546Y002650D01*
X002546Y002747D01*
X002498Y002796D01*
X002353Y002796D01*
X002353Y002505D01*
X002647Y002505D02*
X002744Y002505D01*
X002696Y002505D02*
X002696Y002796D01*
X002744Y002796D02*
X002647Y002796D01*
X002844Y002747D02*
X002844Y002554D01*
X002892Y002505D01*
X002989Y002505D01*
X003037Y002554D01*
X003138Y002602D02*
X003283Y002699D01*
X003384Y002699D02*
X003432Y002699D01*
X003432Y002505D01*
X003384Y002505D02*
X003481Y002505D01*
X003629Y002554D02*
X003677Y002505D01*
X003629Y002554D02*
X003629Y002747D01*
X003677Y002699D02*
X003580Y002699D01*
X003432Y002796D02*
X003432Y002844D01*
X003138Y002796D02*
X003138Y002505D01*
X003138Y002602D02*
X003283Y002505D01*
X003037Y002747D02*
X002989Y002796D01*
X002892Y002796D01*
X002844Y002747D01*
X002011Y003575D02*
X001914Y003575D01*
X001866Y003624D01*
X001866Y003720D02*
X001963Y003769D01*
X002011Y003769D01*
X002060Y003720D01*
X002060Y003624D01*
X002011Y003575D01*
X001866Y003720D02*
X001866Y003866D01*
X002060Y003866D01*
X001765Y003817D02*
X001765Y003769D01*
X001717Y003720D01*
X001571Y003720D01*
X001571Y003575D02*
X001717Y003575D01*
X001765Y003624D01*
X001765Y003672D01*
X001717Y003720D01*
X001765Y003817D02*
X001717Y003866D01*
X001571Y003866D01*
X001571Y003575D01*
X001571Y004575D02*
X001571Y004769D01*
X001668Y004866D01*
X001765Y004769D01*
X001765Y004575D01*
X001765Y004720D02*
X001571Y004720D01*
X001866Y004720D02*
X002060Y004720D01*
X002011Y004575D02*
X002011Y004866D01*
X001866Y004720D01*
X002011Y006450D02*
X002011Y006741D01*
X001866Y006595D01*
X002060Y006595D01*
X001765Y006547D02*
X001765Y006499D01*
X001717Y006450D01*
X001571Y006450D01*
X001571Y006741D01*
X001717Y006741D01*
X001765Y006692D01*
X001765Y006644D01*
X001717Y006595D01*
X001571Y006595D01*
X001717Y006595D02*
X001765Y006547D01*
X001717Y007450D02*
X001571Y007450D01*
X001571Y007741D01*
X001717Y007741D01*
X001765Y007692D01*
X001765Y007644D01*
X001717Y007595D01*
X001571Y007595D01*
X001717Y007595D02*
X001765Y007547D01*
X001765Y007499D01*
X001717Y007450D01*
X001866Y007499D02*
X001914Y007450D01*
X002011Y007450D01*
X002060Y007499D01*
X002060Y007547D01*
X002011Y007595D01*
X001963Y007595D01*
X002011Y007595D02*
X002060Y007644D01*
X002060Y007692D01*
X002011Y007741D01*
X001914Y007741D01*
X001866Y007692D01*
X001866Y008450D02*
X002060Y008644D01*
X002060Y008692D01*
X002011Y008741D01*
X001914Y008741D01*
X001866Y008692D01*
X001765Y008692D02*
X001765Y008644D01*
X001717Y008595D01*
X001571Y008595D01*
X001571Y008450D02*
X001571Y008741D01*
X001717Y008741D01*
X001765Y008692D01*
X001717Y008595D02*
X001765Y008547D01*
X001765Y008499D01*
X001717Y008450D01*
X001571Y008450D01*
X001866Y008450D02*
X002060Y008450D01*
X002060Y009450D02*
X001866Y009450D01*
X001963Y009450D02*
X001963Y009741D01*
X001866Y009644D01*
X001765Y009644D02*
X001717Y009595D01*
X001571Y009595D01*
X001571Y009450D02*
X001717Y009450D01*
X001765Y009499D01*
X001765Y009547D01*
X001717Y009595D01*
X001765Y009644D02*
X001765Y009692D01*
X001717Y009741D01*
X001571Y009741D01*
X001571Y009450D01*
X001571Y011325D02*
X001717Y011325D01*
X001765Y011374D01*
X001765Y011422D01*
X001717Y011470D01*
X001571Y011470D01*
X001571Y011325D02*
X001571Y011616D01*
X001717Y011616D01*
X001765Y011567D01*
X001765Y011519D01*
X001717Y011470D01*
X001866Y011374D02*
X001866Y011567D01*
X001914Y011616D01*
X002011Y011616D01*
X002060Y011567D01*
X001866Y011374D01*
X001914Y011325D01*
X002011Y011325D01*
X002060Y011374D01*
X002060Y011567D01*
X002060Y012325D02*
X001866Y012325D01*
X001963Y012325D02*
X001963Y012616D01*
X001866Y012519D01*
X001765Y012519D02*
X001668Y012616D01*
X001571Y012519D01*
X001571Y012325D01*
X001571Y012470D02*
X001765Y012470D01*
X001765Y012519D02*
X001765Y012325D01*
X001765Y013325D02*
X001765Y013519D01*
X001668Y013616D01*
X001571Y013519D01*
X001571Y013325D01*
X001571Y013470D02*
X001765Y013470D01*
X001866Y013374D02*
X001914Y013325D01*
X002011Y013325D01*
X002060Y013374D01*
X002060Y013567D01*
X001866Y013374D01*
X001866Y013567D01*
X001914Y013616D01*
X002011Y013616D01*
X002060Y013567D01*
X002011Y014325D02*
X002060Y014374D01*
X002011Y014325D02*
X001914Y014325D01*
X001866Y014374D01*
X001866Y014567D01*
X001914Y014616D01*
X002011Y014616D01*
X002060Y014567D01*
X002161Y014616D02*
X002161Y014325D01*
X002354Y014325D01*
X002455Y014325D02*
X002455Y014616D01*
X002600Y014616D01*
X002649Y014567D01*
X002649Y014470D01*
X002600Y014422D01*
X002455Y014422D01*
X002552Y014422D02*
X002649Y014325D01*
X001765Y014325D02*
X001765Y014616D01*
X001668Y014519D01*
X001571Y014616D01*
X001571Y014325D01*
X004929Y015505D02*
X005122Y015505D01*
X005223Y015505D02*
X005368Y015505D01*
X005417Y015554D01*
X005417Y015747D01*
X005368Y015796D01*
X005223Y015796D01*
X005223Y015505D01*
X004929Y015505D02*
X004929Y015796D01*
X005518Y015699D02*
X005615Y015796D01*
X005615Y015505D01*
X005711Y015505D02*
X005518Y015505D01*
X005812Y015505D02*
X006006Y015505D01*
X005909Y015505D02*
X005909Y015796D01*
X005812Y015699D01*
X006107Y015699D02*
X006204Y015796D01*
X006204Y015505D01*
X006107Y015505D02*
X006301Y015505D01*
X006402Y015505D02*
X006402Y015554D01*
X006595Y015747D01*
X006595Y015796D01*
X006402Y015796D01*
X007268Y015705D02*
X007461Y015705D01*
X007365Y015705D02*
X007365Y015996D01*
X007268Y015899D01*
X007562Y015947D02*
X007562Y015754D01*
X007756Y015947D01*
X007756Y015754D01*
X007708Y015705D01*
X007611Y015705D01*
X007562Y015754D01*
X007562Y015947D02*
X007611Y015996D01*
X007708Y015996D01*
X007756Y015947D01*
X007857Y015899D02*
X007857Y015754D01*
X007905Y015705D01*
X008051Y015705D01*
X008051Y015899D01*
X008152Y015850D02*
X008249Y015850D01*
X008152Y015705D02*
X008152Y015996D01*
X008345Y015996D01*
X010576Y016599D02*
X010576Y016695D01*
X010625Y016744D01*
X010818Y016550D01*
X010866Y016599D01*
X010866Y016695D01*
X010818Y016744D01*
X010625Y016744D01*
X010576Y016599D02*
X010625Y016550D01*
X010818Y016550D01*
X010818Y016845D02*
X010818Y016893D01*
X010866Y016893D01*
X010866Y016845D01*
X010818Y016845D01*
X010866Y016992D02*
X010866Y017186D01*
X010866Y017089D02*
X010576Y017089D01*
X010673Y016992D01*
X010673Y017287D02*
X010818Y017287D01*
X010866Y017335D01*
X010866Y017480D01*
X010673Y017480D01*
X010721Y017582D02*
X010721Y017678D01*
X010576Y017582D02*
X010576Y017775D01*
X010576Y017582D02*
X010866Y017582D01*
X009661Y018448D02*
X009613Y018399D01*
X009420Y018593D01*
X009613Y018593D01*
X009661Y018545D01*
X009661Y018448D01*
X009613Y018399D02*
X009420Y018399D01*
X009371Y018448D01*
X009371Y018545D01*
X009420Y018593D01*
X009613Y018694D02*
X009613Y018742D01*
X009661Y018742D01*
X009661Y018694D01*
X009613Y018694D01*
X009661Y018841D02*
X009661Y019035D01*
X009661Y018938D02*
X009371Y018938D01*
X009468Y018841D01*
X009468Y019136D02*
X009613Y019136D01*
X009661Y019184D01*
X009661Y019330D01*
X009468Y019330D01*
X009516Y019431D02*
X009516Y019527D01*
X009371Y019431D02*
X009371Y019624D01*
X009371Y019431D02*
X009661Y019431D01*
X011098Y019730D02*
X011098Y020021D01*
X011243Y020021D01*
X011292Y019972D01*
X011292Y019875D01*
X011243Y019827D01*
X011098Y019827D01*
X011393Y019779D02*
X011441Y019730D01*
X011538Y019730D01*
X011586Y019779D01*
X011586Y019972D01*
X011538Y020021D01*
X011441Y020021D01*
X011393Y019972D01*
X011393Y019779D01*
X011687Y019730D02*
X011784Y019827D01*
X011881Y019730D01*
X011881Y020021D01*
X011982Y020021D02*
X011982Y019730D01*
X012176Y019730D01*
X012277Y019730D02*
X012277Y020021D01*
X012422Y020021D01*
X012470Y019972D01*
X012470Y019875D01*
X012422Y019827D01*
X012277Y019827D01*
X012374Y019827D02*
X012470Y019730D01*
X012176Y020021D02*
X011982Y020021D01*
X011982Y019875D02*
X012079Y019875D01*
X011687Y019730D02*
X011687Y020021D01*
X013696Y018991D02*
X013696Y018700D01*
X013696Y018797D02*
X013842Y018797D01*
X013890Y018845D01*
X013890Y018942D01*
X013842Y018991D01*
X013696Y018991D01*
X013793Y018797D02*
X013890Y018700D01*
X013991Y018700D02*
X014185Y018700D01*
X014286Y018749D02*
X014334Y018700D01*
X014431Y018700D01*
X014479Y018749D01*
X014479Y018797D01*
X014431Y018845D01*
X014334Y018845D01*
X014286Y018894D01*
X014286Y018942D01*
X014334Y018991D01*
X014431Y018991D01*
X014479Y018942D01*
X014580Y018991D02*
X014580Y018700D01*
X014774Y018700D01*
X014677Y018845D02*
X014580Y018845D01*
X014580Y018991D02*
X014774Y018991D01*
X014875Y018991D02*
X015068Y018991D01*
X014972Y018991D02*
X014972Y018700D01*
X014185Y018991D02*
X013991Y018991D01*
X013991Y018700D01*
X013991Y018845D02*
X014088Y018845D01*
X017196Y018749D02*
X017245Y018700D01*
X017342Y018700D01*
X017390Y018749D01*
X017390Y018991D01*
X017491Y018942D02*
X017491Y018894D01*
X017539Y018845D01*
X017636Y018845D01*
X017685Y018797D01*
X017685Y018749D01*
X017636Y018700D01*
X017539Y018700D01*
X017491Y018749D01*
X017491Y018942D02*
X017539Y018991D01*
X017636Y018991D01*
X017685Y018942D01*
X017786Y018991D02*
X017786Y018700D01*
X017979Y018700D01*
X018080Y018700D02*
X018080Y018991D01*
X018225Y018991D01*
X018274Y018942D01*
X018274Y018845D01*
X018225Y018797D01*
X018080Y018797D01*
X018177Y018797D02*
X018274Y018700D01*
X017979Y018991D02*
X017786Y018991D01*
X017786Y018845D02*
X017882Y018845D01*
X017196Y018749D02*
X017196Y018991D01*
X014496Y014874D02*
X014496Y014681D01*
X014786Y014681D01*
X014786Y014580D02*
X014593Y014580D01*
X014641Y014681D02*
X014641Y014777D01*
X014786Y014580D02*
X014786Y014434D01*
X014738Y014386D01*
X014593Y014386D01*
X014786Y014285D02*
X014786Y014091D01*
X014786Y014188D02*
X014496Y014188D01*
X014593Y014091D01*
X014738Y013992D02*
X014738Y013944D01*
X014786Y013944D01*
X014786Y013992D01*
X014738Y013992D01*
X014738Y013843D02*
X014545Y013843D01*
X014738Y013649D01*
X014786Y013698D01*
X014786Y013795D01*
X014738Y013843D01*
X014545Y013843D02*
X014496Y013795D01*
X014496Y013698D01*
X014545Y013649D01*
X014738Y013649D01*
X016768Y012021D02*
X016768Y011730D01*
X016961Y011730D01*
X017062Y011730D02*
X017256Y011730D01*
X017357Y011730D02*
X017357Y012021D01*
X017502Y012021D01*
X017551Y011972D01*
X017551Y011779D01*
X017502Y011730D01*
X017357Y011730D01*
X017159Y011875D02*
X017062Y011875D01*
X017062Y011730D02*
X017062Y012021D01*
X017256Y012021D01*
X017652Y011972D02*
X017700Y012021D01*
X017797Y012021D01*
X017845Y011972D01*
X017845Y011924D01*
X017652Y011730D01*
X017845Y011730D01*
X017842Y010741D02*
X017696Y010741D01*
X017696Y010450D01*
X017842Y010450D01*
X017890Y010499D01*
X017890Y010547D01*
X017842Y010595D01*
X017696Y010595D01*
X017842Y010595D02*
X017890Y010644D01*
X017890Y010692D01*
X017842Y010741D01*
X017991Y010644D02*
X018088Y010741D01*
X018088Y010450D01*
X017991Y010450D02*
X018185Y010450D01*
X018286Y010499D02*
X018334Y010450D01*
X018431Y010450D01*
X018479Y010499D01*
X018479Y010595D01*
X018431Y010644D01*
X018382Y010644D01*
X018286Y010595D01*
X018286Y010741D01*
X018479Y010741D01*
X018431Y009741D02*
X018286Y009595D01*
X018479Y009595D01*
X018431Y009450D02*
X018431Y009741D01*
X018185Y009450D02*
X017991Y009450D01*
X018088Y009450D02*
X018088Y009741D01*
X017991Y009644D01*
X017890Y009644D02*
X017842Y009595D01*
X017696Y009595D01*
X017696Y009450D02*
X017842Y009450D01*
X017890Y009499D01*
X017890Y009547D01*
X017842Y009595D01*
X017890Y009644D02*
X017890Y009692D01*
X017842Y009741D01*
X017696Y009741D01*
X017696Y009450D01*
X017696Y008741D02*
X017842Y008741D01*
X017890Y008692D01*
X017890Y008644D01*
X017842Y008595D01*
X017696Y008595D01*
X017696Y008450D02*
X017696Y008741D01*
X017842Y008595D02*
X017890Y008547D01*
X017890Y008499D01*
X017842Y008450D01*
X017696Y008450D01*
X017991Y008450D02*
X018185Y008450D01*
X018088Y008450D02*
X018088Y008741D01*
X017991Y008644D01*
X018286Y008692D02*
X018334Y008741D01*
X018431Y008741D01*
X018479Y008692D01*
X018479Y008644D01*
X018431Y008595D01*
X018479Y008547D01*
X018479Y008499D01*
X018431Y008450D01*
X018334Y008450D01*
X018286Y008499D01*
X018382Y008595D02*
X018431Y008595D01*
X018386Y007741D02*
X018289Y007741D01*
X018241Y007692D01*
X018241Y007644D01*
X018289Y007595D01*
X018435Y007595D01*
X018435Y007499D02*
X018435Y007692D01*
X018386Y007741D01*
X018140Y007692D02*
X018140Y007644D01*
X018092Y007595D01*
X017946Y007595D01*
X017946Y007450D02*
X018092Y007450D01*
X018140Y007499D01*
X018140Y007547D01*
X018092Y007595D01*
X018140Y007692D02*
X018092Y007741D01*
X017946Y007741D01*
X017946Y007450D01*
X018241Y007499D02*
X018289Y007450D01*
X018386Y007450D01*
X018435Y007499D01*
X018386Y004741D02*
X018289Y004741D01*
X018241Y004692D01*
X018241Y004644D01*
X018289Y004595D01*
X018386Y004595D01*
X018435Y004547D01*
X018435Y004499D01*
X018386Y004450D01*
X018289Y004450D01*
X018241Y004499D01*
X018241Y004547D01*
X018289Y004595D01*
X018386Y004595D02*
X018435Y004644D01*
X018435Y004692D01*
X018386Y004741D01*
X018140Y004692D02*
X018140Y004644D01*
X018092Y004595D01*
X017946Y004595D01*
X017946Y004450D02*
X017946Y004741D01*
X018092Y004741D01*
X018140Y004692D01*
X018092Y004595D02*
X018140Y004547D01*
X018140Y004499D01*
X018092Y004450D01*
X017946Y004450D01*
X017946Y003741D02*
X018092Y003741D01*
X018140Y003692D01*
X018140Y003644D01*
X018092Y003595D01*
X017946Y003595D01*
X017946Y003450D02*
X017946Y003741D01*
X018092Y003595D02*
X018140Y003547D01*
X018140Y003499D01*
X018092Y003450D01*
X017946Y003450D01*
X018241Y003450D02*
X018241Y003499D01*
X018435Y003692D01*
X018435Y003741D01*
X018241Y003741D01*
X018306Y002866D02*
X018161Y002866D01*
X018161Y002575D01*
X018306Y002575D01*
X018354Y002624D01*
X018354Y002817D01*
X018306Y002866D01*
X018060Y002866D02*
X018060Y002575D01*
X017866Y002866D01*
X017866Y002575D01*
X017765Y002624D02*
X017765Y002720D01*
X017668Y002720D01*
X017571Y002624D02*
X017571Y002817D01*
X017620Y002866D01*
X017717Y002866D01*
X017765Y002817D01*
X017765Y002624D02*
X017717Y002575D01*
X017620Y002575D01*
X017571Y002624D01*
X017946Y001741D02*
X017946Y001595D01*
X018043Y001644D01*
X018092Y001644D01*
X018140Y001595D01*
X018140Y001499D01*
X018092Y001450D01*
X017995Y001450D01*
X017946Y001499D01*
X017946Y001741D02*
X018140Y001741D01*
X018241Y001741D02*
X018241Y001547D01*
X018338Y001450D01*
X018435Y001547D01*
X018435Y001741D01*
X013902Y007955D02*
X013902Y008246D01*
X014095Y008246D01*
X013999Y008100D02*
X013902Y008100D01*
X013801Y008149D02*
X013801Y007955D01*
X013655Y007955D01*
X013607Y008004D01*
X013607Y008149D01*
X013506Y008197D02*
X013312Y008004D01*
X013361Y007955D01*
X013458Y007955D01*
X013506Y008004D01*
X013506Y008197D01*
X013458Y008246D01*
X013361Y008246D01*
X013312Y008197D01*
X013312Y008004D01*
X013211Y007955D02*
X013018Y007955D01*
X013115Y007955D02*
X013115Y008246D01*
X013018Y008149D01*
X014393Y008980D02*
X014586Y008980D01*
X014687Y008980D02*
X014687Y009271D01*
X014881Y009271D01*
X014982Y009271D02*
X015127Y009271D01*
X015176Y009222D01*
X015176Y009029D01*
X015127Y008980D01*
X014982Y008980D01*
X014982Y009271D01*
X014784Y009125D02*
X014687Y009125D01*
X014687Y008980D02*
X014881Y008980D01*
X015277Y009029D02*
X015325Y008980D01*
X015422Y008980D01*
X015470Y009029D01*
X015470Y009077D01*
X015422Y009125D01*
X015374Y009125D01*
X015422Y009125D02*
X015470Y009174D01*
X015470Y009222D01*
X015422Y009271D01*
X015325Y009271D01*
X015277Y009222D01*
X014393Y009271D02*
X014393Y008980D01*
X005456Y007004D02*
X005456Y006811D01*
X005408Y006811D01*
X005215Y007004D01*
X005166Y007004D01*
X005166Y006811D01*
X005166Y006710D02*
X005456Y006710D01*
X005311Y006710D02*
X005311Y006516D01*
X005456Y006516D02*
X005166Y006516D01*
X005166Y006415D02*
X005456Y006415D01*
X005456Y006221D02*
X005166Y006221D01*
X005263Y006318D01*
X005166Y006415D01*
X005215Y006120D02*
X005263Y006120D01*
X005311Y006072D01*
X005311Y005975D01*
X005263Y005927D01*
X005215Y005927D01*
X005166Y005975D01*
X005166Y006072D01*
X005215Y006120D01*
X005311Y006072D02*
X005360Y006120D01*
X005408Y006120D01*
X005456Y006072D01*
X005456Y005975D01*
X005408Y005927D01*
X005360Y005927D01*
X005311Y005975D01*
X004576Y004025D02*
X004576Y003832D01*
X004866Y003832D01*
X004866Y003730D02*
X004673Y003730D01*
X004721Y003832D02*
X004721Y003928D01*
X004866Y003730D02*
X004866Y003585D01*
X004818Y003537D01*
X004673Y003537D01*
X004866Y003436D02*
X004866Y003242D01*
X004866Y003339D02*
X004576Y003339D01*
X004673Y003242D01*
X004818Y003143D02*
X004818Y003095D01*
X004866Y003095D01*
X004866Y003143D01*
X004818Y003143D01*
X004818Y002994D02*
X004625Y002994D01*
X004818Y002800D01*
X004866Y002849D01*
X004866Y002945D01*
X004818Y002994D01*
X004625Y002994D02*
X004576Y002945D01*
X004576Y002849D01*
X004625Y002800D01*
X004818Y002800D01*
X003970Y002747D02*
X003970Y002699D01*
X003922Y002650D01*
X003970Y002602D01*
X003970Y002554D01*
X003922Y002505D01*
X003825Y002505D01*
X003777Y002554D01*
X003873Y002650D02*
X003922Y002650D01*
X003970Y002747D02*
X003922Y002796D01*
X003825Y002796D01*
X003777Y002747D01*
D12*
X007251Y001436D02*
X007251Y000985D01*
X007251Y001135D02*
X007476Y001135D01*
X007552Y001211D01*
X007552Y001361D01*
X007476Y001436D01*
X007251Y001436D01*
X007712Y001436D02*
X007862Y001436D01*
X007787Y001436D02*
X007787Y000985D01*
X007712Y000985D02*
X007862Y000985D01*
X008019Y001060D02*
X008094Y000985D01*
X008244Y000985D01*
X008319Y001060D01*
X008479Y001060D02*
X008554Y000985D01*
X008704Y000985D01*
X008779Y001060D01*
X008779Y001135D01*
X008704Y001211D01*
X008629Y001211D01*
X008704Y001211D02*
X008779Y001286D01*
X008779Y001361D01*
X008704Y001436D01*
X008554Y001436D01*
X008479Y001361D01*
X008319Y001361D02*
X008244Y001436D01*
X008094Y001436D01*
X008019Y001361D01*
X008019Y001060D01*
X008939Y000985D02*
X009239Y001286D01*
X009239Y001361D01*
X009164Y001436D01*
X009014Y001436D01*
X008939Y001361D01*
X008939Y000985D02*
X009239Y000985D01*
X009400Y000985D02*
X009400Y001436D01*
X009550Y001286D01*
X009700Y001436D01*
X009700Y000985D01*
X009860Y000985D02*
X010160Y001436D01*
X010320Y001361D02*
X010395Y001436D01*
X010545Y001436D01*
X010621Y001361D01*
X010621Y001286D01*
X010320Y000985D01*
X010621Y000985D01*
X010781Y001060D02*
X010856Y000985D01*
X011006Y000985D01*
X011081Y001060D01*
X011081Y001211D01*
X011006Y001286D01*
X010931Y001286D01*
X010781Y001211D01*
X010781Y001436D01*
X011081Y001436D01*
X011241Y001361D02*
X011241Y001060D01*
X011541Y001361D01*
X011541Y001060D01*
X011466Y000985D01*
X011316Y000985D01*
X011241Y001060D01*
X011241Y001361D02*
X011316Y001436D01*
X011466Y001436D01*
X011541Y001361D01*
X011701Y001436D02*
X012002Y001436D01*
X012162Y001286D02*
X012312Y001436D01*
X012312Y000985D01*
X012162Y000985D02*
X012462Y000985D01*
X012622Y000985D02*
X012922Y001286D01*
X012922Y001361D01*
X012847Y001436D01*
X012697Y001436D01*
X012622Y001361D01*
X012622Y000985D02*
X012922Y000985D01*
X013082Y001060D02*
X013082Y001135D01*
X013157Y001211D01*
X013308Y001211D01*
X013383Y001135D01*
X013383Y001060D01*
X013308Y000985D01*
X013157Y000985D01*
X013082Y001060D01*
X013157Y001211D02*
X013082Y001286D01*
X013082Y001361D01*
X013157Y001436D01*
X013308Y001436D01*
X013383Y001361D01*
X013383Y001286D01*
X013308Y001211D01*
X013543Y001211D02*
X013768Y001211D01*
X013843Y001135D01*
X013843Y001060D01*
X013768Y000985D01*
X013543Y000985D01*
X013543Y001436D01*
X013768Y001436D01*
X013843Y001361D01*
X013843Y001286D01*
X013768Y001211D01*
X014003Y001436D02*
X014003Y000985D01*
X014228Y000985D01*
X014303Y001060D01*
X014303Y001361D01*
X014228Y001436D01*
X014003Y001436D01*
X014464Y001436D02*
X014614Y001436D01*
X014539Y001436D02*
X014539Y000985D01*
X014464Y000985D02*
X014614Y000985D01*
X014770Y000985D02*
X014770Y001436D01*
X014996Y001436D01*
X015071Y001361D01*
X015071Y001211D01*
X014996Y001135D01*
X014770Y001135D01*
X011851Y001211D02*
X011701Y001211D01*
X011701Y001436D02*
X011701Y000985D01*
X010160Y000985D02*
X009860Y001436D01*
X006156Y009210D02*
X005546Y009210D01*
X005749Y009414D01*
X005546Y009617D01*
X006156Y009617D01*
X006156Y009818D02*
X006156Y010225D01*
X006156Y009818D02*
X005546Y009818D01*
X005546Y010225D01*
X005851Y010426D02*
X005851Y010833D01*
X005648Y011034D02*
X005546Y011135D01*
X005546Y011339D01*
X005648Y011441D01*
X005749Y011441D01*
X005851Y011339D01*
X005953Y011441D01*
X006055Y011441D01*
X006156Y011339D01*
X006156Y011135D01*
X006055Y011034D01*
X005851Y011237D02*
X005851Y011339D01*
X005648Y011641D02*
X005546Y011743D01*
X005546Y011946D01*
X005648Y012048D01*
X005749Y012048D01*
X005851Y011946D01*
X005953Y012048D01*
X006055Y012048D01*
X006156Y011946D01*
X006156Y011743D01*
X006055Y011641D01*
X005851Y011845D02*
X005851Y011946D01*
X005156Y011846D02*
X005156Y011439D01*
X004749Y011846D01*
X004648Y011846D01*
X004546Y011744D01*
X004546Y011540D01*
X004648Y011439D01*
X004648Y011238D02*
X004749Y011238D01*
X004851Y011136D01*
X004953Y011238D01*
X005055Y011238D01*
X005156Y011136D01*
X005156Y010933D01*
X005055Y010831D01*
X005055Y010630D02*
X005156Y010528D01*
X005156Y010325D01*
X005055Y010223D01*
X004648Y010223D01*
X004546Y010325D01*
X004546Y010528D01*
X004648Y010630D01*
X004648Y010831D02*
X004546Y010933D01*
X004546Y011136D01*
X004648Y011238D01*
X004851Y011136D02*
X004851Y011034D01*
X005546Y010731D02*
X005851Y010426D01*
X005851Y010022D02*
X005851Y009818D01*
X005156Y009818D02*
X005156Y010022D01*
X005156Y009920D02*
X004546Y009920D01*
X004546Y009818D02*
X004546Y010022D01*
X004648Y009617D02*
X004851Y009617D01*
X004953Y009516D01*
X004953Y009210D01*
X005156Y009210D02*
X004546Y009210D01*
X004546Y009516D01*
X004648Y009617D01*
X005546Y010731D02*
X006156Y010731D01*
X005156Y012046D02*
X004546Y012046D01*
X004749Y012250D01*
X004546Y012453D01*
X005156Y012453D01*
X005156Y012654D02*
X004546Y013061D01*
X004648Y013262D02*
X004546Y013364D01*
X004546Y013567D01*
X004648Y013669D01*
X004749Y013669D01*
X005156Y013262D01*
X005156Y013669D01*
X005055Y013869D02*
X005156Y013971D01*
X005156Y014175D01*
X005055Y014276D01*
X004851Y014276D01*
X004749Y014175D01*
X004749Y014073D01*
X004851Y013869D01*
X004546Y013869D01*
X004546Y014276D01*
X004648Y014477D02*
X004546Y014579D01*
X004546Y014782D01*
X004648Y014884D01*
X005055Y014477D01*
X005156Y014579D01*
X005156Y014782D01*
X005055Y014884D01*
X004648Y014884D01*
X004648Y014477D02*
X005055Y014477D01*
X005156Y013061D02*
X004546Y012654D01*
D13*
X006766Y012559D02*
X006766Y012386D01*
X006853Y012299D01*
X007200Y012299D01*
X007286Y012386D01*
X007286Y012559D01*
X007200Y012646D01*
X006853Y012646D01*
X006766Y012559D01*
X006853Y012130D02*
X006766Y012044D01*
X006766Y011870D01*
X006853Y011784D01*
X007200Y011784D01*
X007286Y011870D01*
X007286Y012044D01*
X007200Y012130D01*
X006853Y012130D01*
X006766Y011615D02*
X007286Y011615D01*
X007113Y011441D01*
X007286Y011268D01*
X006766Y011268D01*
X006853Y011099D02*
X006766Y011012D01*
X006766Y010839D01*
X006853Y010752D01*
X007200Y010752D01*
X007286Y010839D01*
X007286Y011012D01*
X007200Y011099D01*
X007026Y011099D01*
X007026Y010926D01*
X007286Y010584D02*
X006766Y010584D01*
X006766Y010237D02*
X007286Y010584D01*
X007286Y010237D02*
X006766Y010237D01*
X006853Y010068D02*
X006766Y009981D01*
X006766Y009808D01*
X006853Y009721D01*
X007200Y009721D01*
X007286Y009808D01*
X007286Y009981D01*
X007200Y010068D01*
X006853Y010068D01*
X006766Y009552D02*
X006766Y009379D01*
X006766Y009466D02*
X007200Y009466D01*
X007286Y009379D01*
X007286Y009292D01*
X007200Y009205D01*
X007286Y013330D02*
X006766Y013330D01*
X007286Y013330D02*
X007286Y013677D01*
X007286Y013846D02*
X007286Y014193D01*
X007286Y014362D02*
X007286Y014709D01*
X007026Y014535D02*
X007026Y014362D01*
X006766Y014362D02*
X007286Y014362D01*
X007026Y014019D02*
X007026Y013846D01*
X006766Y013846D02*
X007286Y013846D01*
X006766Y013846D02*
X006766Y014193D01*
X006766Y014362D02*
X006766Y014709D01*
X013061Y017074D02*
X013120Y017015D01*
X013237Y017015D01*
X013295Y017074D01*
X013295Y017132D01*
X013237Y017190D01*
X013178Y017190D01*
X013237Y017190D02*
X013295Y017249D01*
X013295Y017307D01*
X013237Y017366D01*
X013120Y017366D01*
X013061Y017307D01*
X013421Y017307D02*
X013479Y017366D01*
X013596Y017366D01*
X013654Y017307D01*
X013654Y017249D01*
X013596Y017190D01*
X013654Y017132D01*
X013654Y017074D01*
X013596Y017015D01*
X013479Y017015D01*
X013421Y017074D01*
X013537Y017190D02*
X013596Y017190D01*
X013780Y017074D02*
X014013Y017307D01*
X014013Y017074D01*
X013955Y017015D01*
X013838Y017015D01*
X013780Y017074D01*
X013780Y017307D01*
X013838Y017366D01*
X013955Y017366D01*
X014013Y017307D01*
X016511Y016546D02*
X016861Y016546D01*
X016745Y016546D02*
X016628Y016721D01*
X016745Y016546D02*
X016861Y016721D01*
X016803Y016421D02*
X016570Y016421D01*
X016803Y016187D01*
X016861Y016245D01*
X016861Y016362D01*
X016803Y016421D01*
X016570Y016421D02*
X016511Y016362D01*
X016511Y016245D01*
X016570Y016187D01*
X016803Y016187D01*
X016861Y016061D02*
X016861Y015828D01*
X016861Y015945D02*
X016511Y015945D01*
X016628Y015828D01*
X018511Y015945D02*
X018861Y015945D01*
X018861Y016061D02*
X018861Y015828D01*
X018628Y015828D02*
X018511Y015945D01*
X018570Y016187D02*
X018511Y016245D01*
X018511Y016362D01*
X018570Y016421D01*
X018803Y016187D01*
X018861Y016245D01*
X018861Y016362D01*
X018803Y016421D01*
X018570Y016421D01*
X018511Y016546D02*
X018861Y016546D01*
X018745Y016546D02*
X018628Y016721D01*
X018745Y016546D02*
X018861Y016721D01*
X018803Y016187D02*
X018570Y016187D01*
X014351Y012459D02*
X014351Y012342D01*
X014293Y012284D01*
X014060Y012517D01*
X014293Y012517D01*
X014351Y012459D01*
X014293Y012284D02*
X014060Y012284D01*
X014001Y012342D01*
X014001Y012459D01*
X014060Y012517D01*
X014060Y012158D02*
X014118Y012158D01*
X014176Y012100D01*
X014235Y012158D01*
X014293Y012158D01*
X014351Y012100D01*
X014351Y011983D01*
X014293Y011924D01*
X014293Y011799D02*
X014235Y011799D01*
X014176Y011740D01*
X014176Y011682D01*
X014176Y011740D02*
X014118Y011799D01*
X014060Y011799D01*
X014001Y011740D01*
X014001Y011624D01*
X014060Y011565D01*
X014293Y011565D02*
X014351Y011624D01*
X014351Y011740D01*
X014293Y011799D01*
X014060Y011924D02*
X014001Y011983D01*
X014001Y012100D01*
X014060Y012158D01*
X014176Y012100D02*
X014176Y012041D01*
X016070Y005220D02*
X016303Y004986D01*
X016361Y005045D01*
X016361Y005161D01*
X016303Y005220D01*
X016070Y005220D01*
X016011Y005161D01*
X016011Y005045D01*
X016070Y004986D01*
X016303Y004986D01*
X016303Y004861D02*
X016361Y004802D01*
X016361Y004686D01*
X016303Y004627D01*
X016303Y004502D02*
X016245Y004502D01*
X016186Y004443D01*
X016186Y004385D01*
X016186Y004443D02*
X016128Y004502D01*
X016070Y004502D01*
X016011Y004443D01*
X016011Y004326D01*
X016070Y004268D01*
X016303Y004268D02*
X016361Y004326D01*
X016361Y004443D01*
X016303Y004502D01*
X016186Y004744D02*
X016186Y004802D01*
X016245Y004861D01*
X016303Y004861D01*
X016186Y004802D02*
X016128Y004861D01*
X016070Y004861D01*
X016011Y004802D01*
X016011Y004686D01*
X016070Y004627D01*
D14*
X015831Y003985D02*
X015831Y005385D01*
X015781Y005435D01*
X015781Y005585D01*
X015783Y005602D01*
X015787Y005619D01*
X015794Y005635D01*
X015804Y005649D01*
X015817Y005662D01*
X015831Y005672D01*
X015847Y005679D01*
X015864Y005683D01*
X015881Y005685D01*
X016481Y005685D01*
X016498Y005683D01*
X016515Y005679D01*
X016531Y005672D01*
X016545Y005662D01*
X016558Y005649D01*
X016568Y005635D01*
X016575Y005619D01*
X016579Y005602D01*
X016581Y005585D01*
X016581Y005435D01*
X016531Y005385D01*
X016531Y003985D01*
X016581Y003935D01*
X016581Y003785D01*
X016579Y003768D01*
X016575Y003751D01*
X016568Y003735D01*
X016558Y003721D01*
X016545Y003708D01*
X016531Y003698D01*
X016515Y003691D01*
X016498Y003687D01*
X016481Y003685D01*
X015881Y003685D01*
X015864Y003687D01*
X015847Y003691D01*
X015831Y003698D01*
X015817Y003708D01*
X015804Y003721D01*
X015794Y003735D01*
X015787Y003751D01*
X015783Y003768D01*
X015781Y003785D01*
X015781Y003935D01*
X015831Y003985D01*
X016549Y007711D02*
X016584Y007741D01*
X016617Y007772D01*
X016647Y007807D01*
X016674Y007843D01*
X016698Y007881D01*
X016720Y007921D01*
X016738Y007963D01*
X016754Y008006D01*
X016766Y008050D01*
X016774Y008094D01*
X016779Y008140D01*
X016781Y008185D01*
X016779Y008230D01*
X016774Y008276D01*
X016766Y008320D01*
X016754Y008364D01*
X016738Y008407D01*
X016720Y008449D01*
X016698Y008489D01*
X016674Y008527D01*
X016647Y008563D01*
X016617Y008598D01*
X016584Y008629D01*
X016549Y008659D01*
X015581Y008185D02*
X015583Y008139D01*
X015588Y008093D01*
X015597Y008047D01*
X015609Y008002D01*
X015625Y007959D01*
X015644Y007917D01*
X015667Y007876D01*
X015692Y007837D01*
X015720Y007801D01*
X015751Y007766D01*
X015785Y007734D01*
X015821Y007705D01*
X015581Y008185D02*
X015583Y008232D01*
X015589Y008280D01*
X015598Y008326D01*
X015611Y008372D01*
X015627Y008416D01*
X015647Y008460D01*
X015671Y008501D01*
X015697Y008540D01*
X015727Y008577D01*
X015760Y008612D01*
X015795Y008644D01*
X015832Y008673D01*
X014481Y010685D02*
X013881Y010685D01*
X013864Y010687D01*
X013847Y010691D01*
X013831Y010698D01*
X013817Y010708D01*
X013804Y010721D01*
X013794Y010735D01*
X013787Y010751D01*
X013783Y010768D01*
X013781Y010785D01*
X013781Y010935D01*
X013831Y010985D01*
X013831Y012385D01*
X013781Y012435D01*
X013781Y012585D01*
X013783Y012602D01*
X013787Y012619D01*
X013794Y012635D01*
X013804Y012649D01*
X013817Y012662D01*
X013831Y012672D01*
X013847Y012679D01*
X013864Y012683D01*
X013881Y012685D01*
X014481Y012685D01*
X014498Y012683D01*
X014515Y012679D01*
X014531Y012672D01*
X014545Y012662D01*
X014558Y012649D01*
X014568Y012635D01*
X014575Y012619D01*
X014579Y012602D01*
X014581Y012585D01*
X014581Y012435D01*
X014531Y012385D01*
X014531Y010985D01*
X014581Y010935D01*
X014581Y010785D01*
X014579Y010768D01*
X014575Y010751D01*
X014568Y010735D01*
X014558Y010721D01*
X014545Y010708D01*
X014531Y010698D01*
X014515Y010691D01*
X014498Y010687D01*
X014481Y010685D01*
X016549Y012211D02*
X016584Y012241D01*
X016617Y012272D01*
X016647Y012307D01*
X016674Y012343D01*
X016698Y012381D01*
X016720Y012421D01*
X016738Y012463D01*
X016754Y012506D01*
X016766Y012550D01*
X016774Y012594D01*
X016779Y012640D01*
X016781Y012685D01*
X016779Y012730D01*
X016774Y012776D01*
X016766Y012820D01*
X016754Y012864D01*
X016738Y012907D01*
X016720Y012949D01*
X016698Y012989D01*
X016674Y013027D01*
X016647Y013063D01*
X016617Y013098D01*
X016584Y013129D01*
X016549Y013159D01*
X015581Y012685D02*
X015583Y012639D01*
X015588Y012593D01*
X015597Y012547D01*
X015609Y012502D01*
X015625Y012459D01*
X015644Y012417D01*
X015667Y012376D01*
X015692Y012337D01*
X015720Y012301D01*
X015751Y012266D01*
X015785Y012234D01*
X015821Y012205D01*
X015581Y012685D02*
X015583Y012732D01*
X015589Y012780D01*
X015598Y012826D01*
X015611Y012872D01*
X015627Y012916D01*
X015647Y012960D01*
X015671Y013001D01*
X015697Y013040D01*
X015727Y013077D01*
X015760Y013112D01*
X015795Y013144D01*
X015832Y013173D01*
X014281Y013835D02*
X014281Y015535D01*
X014279Y015552D01*
X014275Y015569D01*
X014268Y015585D01*
X014258Y015599D01*
X014245Y015612D01*
X014231Y015622D01*
X014215Y015629D01*
X014198Y015633D01*
X014181Y015635D01*
X013181Y015635D01*
X013164Y015633D01*
X013147Y015629D01*
X013131Y015622D01*
X013117Y015612D01*
X013104Y015599D01*
X013094Y015585D01*
X013087Y015569D01*
X013083Y015552D01*
X013081Y015535D01*
X013081Y013835D01*
X013083Y013818D01*
X013087Y013801D01*
X013094Y013785D01*
X013104Y013771D01*
X013117Y013758D01*
X013131Y013748D01*
X013147Y013741D01*
X013164Y013737D01*
X013181Y013735D01*
X014181Y013735D01*
X014198Y013737D01*
X014215Y013741D01*
X014231Y013748D01*
X014245Y013758D01*
X014258Y013771D01*
X014268Y013785D01*
X014275Y013801D01*
X014279Y013818D01*
X014281Y013835D01*
X013681Y014535D02*
X013681Y014585D01*
X013681Y014785D02*
X013681Y014835D01*
X013931Y016785D02*
X014081Y016785D01*
X014098Y016787D01*
X014115Y016791D01*
X014131Y016798D01*
X014145Y016808D01*
X014158Y016821D01*
X014168Y016835D01*
X014175Y016851D01*
X014179Y016868D01*
X014181Y016885D01*
X014181Y017485D01*
X014179Y017502D01*
X014175Y017519D01*
X014168Y017535D01*
X014158Y017549D01*
X014145Y017562D01*
X014131Y017572D01*
X014115Y017579D01*
X014098Y017583D01*
X014081Y017585D01*
X013931Y017585D01*
X013881Y017535D01*
X012481Y017535D01*
X012431Y017585D01*
X012281Y017585D01*
X012264Y017583D01*
X012247Y017579D01*
X012231Y017572D01*
X012217Y017562D01*
X012204Y017549D01*
X012194Y017535D01*
X012187Y017519D01*
X012183Y017502D01*
X012181Y017485D01*
X012181Y016885D01*
X012183Y016868D01*
X012187Y016851D01*
X012194Y016835D01*
X012204Y016821D01*
X012217Y016808D01*
X012231Y016798D01*
X012247Y016791D01*
X012264Y016787D01*
X012281Y016785D01*
X012431Y016785D01*
X012481Y016835D01*
X013881Y016835D01*
X013931Y016785D01*
X016281Y016935D02*
X016331Y016885D01*
X016331Y015485D01*
X016281Y015435D01*
X016281Y015285D01*
X016283Y015268D01*
X016287Y015251D01*
X016294Y015235D01*
X016304Y015221D01*
X016317Y015208D01*
X016331Y015198D01*
X016347Y015191D01*
X016364Y015187D01*
X016381Y015185D01*
X016981Y015185D01*
X016998Y015187D01*
X017015Y015191D01*
X017031Y015198D01*
X017045Y015208D01*
X017058Y015221D01*
X017068Y015235D01*
X017075Y015251D01*
X017079Y015268D01*
X017081Y015285D01*
X017081Y015435D01*
X017031Y015485D01*
X017031Y016885D01*
X017081Y016935D01*
X017081Y017085D01*
X017079Y017102D01*
X017075Y017119D01*
X017068Y017135D01*
X017058Y017149D01*
X017045Y017162D01*
X017031Y017172D01*
X017015Y017179D01*
X016998Y017183D01*
X016981Y017185D01*
X016381Y017185D01*
X016364Y017183D01*
X016347Y017179D01*
X016331Y017172D01*
X016317Y017162D01*
X016304Y017149D01*
X016294Y017135D01*
X016287Y017119D01*
X016283Y017102D01*
X016281Y017085D01*
X016281Y016935D01*
X018281Y016935D02*
X018331Y016885D01*
X018331Y015485D01*
X018281Y015435D01*
X018281Y015285D01*
X018283Y015268D01*
X018287Y015251D01*
X018294Y015235D01*
X018304Y015221D01*
X018317Y015208D01*
X018331Y015198D01*
X018347Y015191D01*
X018364Y015187D01*
X018381Y015185D01*
X018981Y015185D01*
X018998Y015187D01*
X019015Y015191D01*
X019031Y015198D01*
X019045Y015208D01*
X019058Y015221D01*
X019068Y015235D01*
X019075Y015251D01*
X019079Y015268D01*
X019081Y015285D01*
X019081Y015435D01*
X019031Y015485D01*
X019031Y016885D01*
X019081Y016935D01*
X019081Y017085D01*
X019079Y017102D01*
X019075Y017119D01*
X019068Y017135D01*
X019058Y017149D01*
X019045Y017162D01*
X019031Y017172D01*
X019015Y017179D01*
X018998Y017183D01*
X018981Y017185D01*
X018381Y017185D01*
X018364Y017183D01*
X018347Y017179D01*
X018331Y017172D01*
X018317Y017162D01*
X018304Y017149D01*
X018294Y017135D01*
X018287Y017119D01*
X018283Y017102D01*
X018281Y017085D01*
X018281Y016935D01*
X012281Y018685D02*
X012279Y018640D01*
X012274Y018594D01*
X012266Y018550D01*
X012254Y018506D01*
X012238Y018463D01*
X012220Y018421D01*
X012198Y018381D01*
X012174Y018343D01*
X012147Y018307D01*
X012117Y018272D01*
X012084Y018241D01*
X012049Y018211D01*
X012281Y018685D02*
X012279Y018730D01*
X012274Y018776D01*
X012266Y018820D01*
X012254Y018864D01*
X012238Y018907D01*
X012220Y018949D01*
X012198Y018989D01*
X012174Y019027D01*
X012147Y019063D01*
X012117Y019098D01*
X012084Y019129D01*
X012049Y019159D01*
X011081Y018685D02*
X011083Y018639D01*
X011088Y018593D01*
X011097Y018547D01*
X011109Y018502D01*
X011125Y018459D01*
X011144Y018417D01*
X011167Y018376D01*
X011192Y018337D01*
X011220Y018301D01*
X011251Y018266D01*
X011285Y018234D01*
X011321Y018205D01*
X011081Y018685D02*
X011083Y018732D01*
X011089Y018780D01*
X011098Y018826D01*
X011111Y018872D01*
X011127Y018916D01*
X011147Y018960D01*
X011171Y019001D01*
X011197Y019040D01*
X011227Y019077D01*
X011260Y019112D01*
X011295Y019144D01*
X011332Y019173D01*
X010306Y018135D02*
X009306Y018135D01*
X009289Y018133D01*
X009272Y018129D01*
X009256Y018122D01*
X009242Y018112D01*
X009229Y018099D01*
X009219Y018085D01*
X009212Y018069D01*
X009208Y018052D01*
X009206Y018035D01*
X009206Y016335D01*
X009208Y016318D01*
X009212Y016301D01*
X009219Y016285D01*
X009229Y016271D01*
X009242Y016258D01*
X009256Y016248D01*
X009272Y016241D01*
X009289Y016237D01*
X009306Y016235D01*
X010306Y016235D01*
X010323Y016237D01*
X010340Y016241D01*
X010356Y016248D01*
X010370Y016258D01*
X010383Y016271D01*
X010393Y016285D01*
X010400Y016301D01*
X010404Y016318D01*
X010406Y016335D01*
X010406Y018035D01*
X010404Y018052D01*
X010400Y018069D01*
X010393Y018085D01*
X010383Y018099D01*
X010370Y018112D01*
X010356Y018122D01*
X010340Y018129D01*
X010323Y018133D01*
X010306Y018135D01*
X009806Y017335D02*
X009806Y017285D01*
X009806Y017085D02*
X009806Y017035D01*
X009781Y015685D02*
X009031Y015685D01*
X009031Y001685D01*
X011331Y001685D01*
X011331Y015685D01*
X010581Y015685D01*
X010579Y015646D01*
X010573Y015607D01*
X010564Y015569D01*
X010551Y015532D01*
X010534Y015496D01*
X010514Y015463D01*
X010490Y015431D01*
X010464Y015402D01*
X010435Y015376D01*
X010403Y015352D01*
X010370Y015332D01*
X010334Y015315D01*
X010297Y015302D01*
X010259Y015293D01*
X010220Y015287D01*
X010181Y015285D01*
X010142Y015287D01*
X010103Y015293D01*
X010065Y015302D01*
X010028Y015315D01*
X009992Y015332D01*
X009959Y015352D01*
X009927Y015376D01*
X009898Y015402D01*
X009872Y015431D01*
X009848Y015463D01*
X009828Y015496D01*
X009811Y015532D01*
X009798Y015569D01*
X009789Y015607D01*
X009783Y015646D01*
X009781Y015685D01*
X009031Y018585D02*
X007331Y018585D01*
X007314Y018587D01*
X007297Y018591D01*
X007281Y018598D01*
X007267Y018608D01*
X007254Y018621D01*
X007244Y018635D01*
X007237Y018651D01*
X007233Y018668D01*
X007231Y018685D01*
X007231Y019685D01*
X007233Y019702D01*
X007237Y019719D01*
X007244Y019735D01*
X007254Y019749D01*
X007267Y019762D01*
X007281Y019772D01*
X007297Y019779D01*
X007314Y019783D01*
X007331Y019785D01*
X009031Y019785D01*
X009048Y019783D01*
X009065Y019779D01*
X009081Y019772D01*
X009095Y019762D01*
X009108Y019749D01*
X009118Y019735D01*
X009125Y019719D01*
X009129Y019702D01*
X009131Y019685D01*
X009131Y018685D01*
X009129Y018668D01*
X009125Y018651D01*
X009118Y018635D01*
X009108Y018621D01*
X009095Y018608D01*
X009081Y018598D01*
X009065Y018591D01*
X009048Y018587D01*
X009031Y018585D01*
X008331Y019185D02*
X008281Y019185D01*
X008081Y019185D02*
X008031Y019185D01*
X006756Y020085D02*
X006756Y016285D01*
X006656Y016185D01*
X005506Y016185D01*
X005506Y020185D02*
X006656Y020185D01*
X006756Y020085D01*
X006906Y003910D02*
X005206Y003910D01*
X005189Y003908D01*
X005172Y003904D01*
X005156Y003897D01*
X005142Y003887D01*
X005129Y003874D01*
X005119Y003860D01*
X005112Y003844D01*
X005108Y003827D01*
X005106Y003810D01*
X005106Y002810D01*
X005108Y002793D01*
X005112Y002776D01*
X005119Y002760D01*
X005129Y002746D01*
X005142Y002733D01*
X005156Y002723D01*
X005172Y002716D01*
X005189Y002712D01*
X005206Y002710D01*
X006906Y002710D01*
X006923Y002712D01*
X006940Y002716D01*
X006956Y002723D01*
X006970Y002733D01*
X006983Y002746D01*
X006993Y002760D01*
X007000Y002776D01*
X007004Y002793D01*
X007006Y002810D01*
X007006Y003810D01*
X007004Y003827D01*
X007000Y003844D01*
X006993Y003860D01*
X006983Y003874D01*
X006970Y003887D01*
X006956Y003897D01*
X006940Y003904D01*
X006923Y003908D01*
X006906Y003910D01*
X006206Y003310D02*
X006156Y003310D01*
X005956Y003310D02*
X005906Y003310D01*
D15*
X005956Y003310D02*
X005956Y003010D01*
X006156Y003010D02*
X006156Y003310D01*
X006156Y003610D01*
X005956Y003610D02*
X005956Y003310D01*
X016578Y007490D02*
X016626Y007520D01*
X016671Y007553D01*
X016714Y007589D01*
X016755Y007627D01*
X016792Y007669D01*
X016827Y007713D01*
X016858Y007759D01*
X016887Y007808D01*
X016911Y007858D01*
X016932Y007910D01*
X016950Y007964D01*
X016963Y008018D01*
X016973Y008073D01*
X016979Y008129D01*
X016981Y008185D01*
X016979Y008238D01*
X016974Y008292D01*
X016965Y008344D01*
X016953Y008396D01*
X016937Y008447D01*
X016918Y008497D01*
X016895Y008546D01*
X016869Y008593D01*
X016841Y008638D01*
X016809Y008681D01*
X016775Y008721D01*
X016737Y008760D01*
X016698Y008796D01*
X015381Y008185D02*
X015383Y008131D01*
X015388Y008077D01*
X015397Y008024D01*
X015410Y007971D01*
X015426Y007920D01*
X015446Y007870D01*
X015469Y007821D01*
X015495Y007773D01*
X015524Y007728D01*
X015557Y007685D01*
X015592Y007644D01*
X015630Y007605D01*
X015670Y007569D01*
X015713Y007536D01*
X015758Y007506D01*
X015805Y007479D01*
X015381Y008185D02*
X015383Y008239D01*
X015388Y008292D01*
X015397Y008346D01*
X015410Y008398D01*
X015426Y008449D01*
X015446Y008500D01*
X015468Y008549D01*
X015494Y008596D01*
X015524Y008641D01*
X015556Y008684D01*
X015591Y008725D01*
X015629Y008764D01*
X015669Y008800D01*
X016578Y011990D02*
X016626Y012020D01*
X016671Y012053D01*
X016714Y012089D01*
X016755Y012127D01*
X016792Y012169D01*
X016827Y012213D01*
X016858Y012259D01*
X016887Y012308D01*
X016911Y012358D01*
X016932Y012410D01*
X016950Y012464D01*
X016963Y012518D01*
X016973Y012573D01*
X016979Y012629D01*
X016981Y012685D01*
X016979Y012738D01*
X016974Y012792D01*
X016965Y012844D01*
X016953Y012896D01*
X016937Y012947D01*
X016918Y012997D01*
X016895Y013046D01*
X016869Y013093D01*
X016841Y013138D01*
X016809Y013181D01*
X016775Y013221D01*
X016737Y013260D01*
X016698Y013296D01*
X015381Y012685D02*
X015383Y012631D01*
X015388Y012577D01*
X015397Y012524D01*
X015410Y012471D01*
X015426Y012420D01*
X015446Y012370D01*
X015469Y012321D01*
X015495Y012273D01*
X015524Y012228D01*
X015557Y012185D01*
X015592Y012144D01*
X015630Y012105D01*
X015670Y012069D01*
X015713Y012036D01*
X015758Y012006D01*
X015805Y011979D01*
X015381Y012685D02*
X015383Y012739D01*
X015388Y012792D01*
X015397Y012846D01*
X015410Y012898D01*
X015426Y012949D01*
X015446Y013000D01*
X015468Y013049D01*
X015494Y013096D01*
X015524Y013141D01*
X015556Y013184D01*
X015591Y013225D01*
X015629Y013264D01*
X015669Y013300D01*
X013981Y014585D02*
X013681Y014585D01*
X013381Y014585D01*
X013381Y014785D02*
X013681Y014785D01*
X013981Y014785D01*
X010106Y017085D02*
X009806Y017085D01*
X009506Y017085D01*
X009506Y017285D02*
X009806Y017285D01*
X010106Y017285D01*
X012078Y017990D02*
X012126Y018020D01*
X012171Y018053D01*
X012214Y018089D01*
X012255Y018127D01*
X012292Y018169D01*
X012327Y018213D01*
X012358Y018259D01*
X012387Y018308D01*
X012411Y018358D01*
X012432Y018410D01*
X012450Y018464D01*
X012463Y018518D01*
X012473Y018573D01*
X012479Y018629D01*
X012481Y018685D01*
X012479Y018738D01*
X012474Y018792D01*
X012465Y018844D01*
X012453Y018896D01*
X012437Y018947D01*
X012418Y018997D01*
X012395Y019046D01*
X012369Y019093D01*
X012341Y019138D01*
X012309Y019181D01*
X012275Y019221D01*
X012237Y019260D01*
X012198Y019296D01*
X010881Y018685D02*
X010883Y018631D01*
X010888Y018577D01*
X010897Y018524D01*
X010910Y018471D01*
X010926Y018420D01*
X010946Y018370D01*
X010969Y018321D01*
X010995Y018273D01*
X011024Y018228D01*
X011057Y018185D01*
X011092Y018144D01*
X011130Y018105D01*
X011170Y018069D01*
X011213Y018036D01*
X011258Y018006D01*
X011305Y017979D01*
X010881Y018685D02*
X010883Y018739D01*
X010888Y018792D01*
X010897Y018846D01*
X010910Y018898D01*
X010926Y018949D01*
X010946Y019000D01*
X010968Y019049D01*
X010994Y019096D01*
X011024Y019141D01*
X011056Y019184D01*
X011091Y019225D01*
X011129Y019264D01*
X011169Y019300D01*
X008281Y019185D02*
X008281Y018885D01*
X008081Y018885D02*
X008081Y019185D01*
X008081Y019485D01*
X008281Y019485D02*
X008281Y019185D01*
D16*
X006947Y017185D02*
X006949Y017247D01*
X006955Y017310D01*
X006965Y017371D01*
X006979Y017432D01*
X006996Y017492D01*
X007017Y017551D01*
X007043Y017608D01*
X007071Y017663D01*
X007103Y017717D01*
X007139Y017768D01*
X007177Y017818D01*
X007219Y017864D01*
X007263Y017908D01*
X007311Y017949D01*
X007360Y017987D01*
X007412Y018021D01*
X007466Y018052D01*
X007522Y018080D01*
X007580Y018104D01*
X007639Y018125D01*
X007699Y018141D01*
X007760Y018154D01*
X007822Y018163D01*
X007884Y018168D01*
X007947Y018169D01*
X008009Y018166D01*
X008071Y018159D01*
X008133Y018148D01*
X008193Y018133D01*
X008253Y018115D01*
X008311Y018093D01*
X008368Y018067D01*
X008423Y018037D01*
X008476Y018004D01*
X008527Y017968D01*
X008575Y017929D01*
X008621Y017886D01*
X008664Y017841D01*
X008704Y017793D01*
X008741Y017743D01*
X008775Y017690D01*
X008806Y017636D01*
X008832Y017580D01*
X008856Y017522D01*
X008875Y017462D01*
X008891Y017402D01*
X008903Y017340D01*
X008911Y017279D01*
X008915Y017216D01*
X008915Y017154D01*
X008911Y017091D01*
X008903Y017030D01*
X008891Y016968D01*
X008875Y016908D01*
X008856Y016848D01*
X008832Y016790D01*
X008806Y016734D01*
X008775Y016680D01*
X008741Y016627D01*
X008704Y016577D01*
X008664Y016529D01*
X008621Y016484D01*
X008575Y016441D01*
X008527Y016402D01*
X008476Y016366D01*
X008423Y016333D01*
X008368Y016303D01*
X008311Y016277D01*
X008253Y016255D01*
X008193Y016237D01*
X008133Y016222D01*
X008071Y016211D01*
X008009Y016204D01*
X007947Y016201D01*
X007884Y016202D01*
X007822Y016207D01*
X007760Y016216D01*
X007699Y016229D01*
X007639Y016245D01*
X007580Y016266D01*
X007522Y016290D01*
X007466Y016318D01*
X007412Y016349D01*
X007360Y016383D01*
X007311Y016421D01*
X007263Y016462D01*
X007219Y016506D01*
X007177Y016552D01*
X007139Y016602D01*
X007103Y016653D01*
X007071Y016707D01*
X007043Y016762D01*
X007017Y016819D01*
X006996Y016878D01*
X006979Y016938D01*
X006965Y016999D01*
X006955Y017060D01*
X006949Y017123D01*
X006947Y017185D01*
X007381Y016885D02*
X007381Y016485D01*
X013181Y019435D02*
X013431Y019185D01*
X013931Y019185D01*
X014931Y019185D01*
X015431Y019185D01*
X015931Y019185D01*
X016181Y019435D01*
X016181Y019935D01*
X015931Y020185D01*
X015431Y020185D01*
X014431Y020185D01*
X013931Y020185D01*
X013431Y020185D01*
X013181Y019935D01*
X013181Y019435D01*
X016681Y019435D02*
X016931Y019185D01*
X017431Y019185D01*
X018431Y019185D01*
X018931Y019185D01*
X019431Y019185D01*
X019681Y019435D01*
X019681Y019935D01*
X019431Y020185D01*
X018931Y020185D01*
X017931Y020185D01*
X017431Y020185D01*
X016931Y020185D01*
X016681Y019935D01*
X016681Y019435D01*
X018931Y011185D02*
X018681Y010935D01*
X018681Y010435D01*
X018931Y010185D01*
X018681Y009935D01*
X018681Y009435D01*
X018931Y009185D01*
X018681Y008935D01*
X018681Y008435D01*
X018931Y008185D01*
X018681Y007935D01*
X018681Y007435D01*
X018931Y007185D01*
X019431Y007185D01*
X019681Y007435D01*
X019681Y007935D01*
X019431Y008185D01*
X019681Y008435D01*
X019681Y008935D01*
X019431Y009185D01*
X019681Y009435D01*
X019681Y009935D01*
X019431Y010185D01*
X019681Y010435D01*
X019681Y010935D01*
X019431Y011185D01*
X018931Y011185D01*
X012697Y006685D02*
X012699Y006747D01*
X012705Y006810D01*
X012715Y006871D01*
X012729Y006932D01*
X012746Y006992D01*
X012767Y007051D01*
X012793Y007108D01*
X012821Y007163D01*
X012853Y007217D01*
X012889Y007268D01*
X012927Y007318D01*
X012969Y007364D01*
X013013Y007408D01*
X013061Y007449D01*
X013110Y007487D01*
X013162Y007521D01*
X013216Y007552D01*
X013272Y007580D01*
X013330Y007604D01*
X013389Y007625D01*
X013449Y007641D01*
X013510Y007654D01*
X013572Y007663D01*
X013634Y007668D01*
X013697Y007669D01*
X013759Y007666D01*
X013821Y007659D01*
X013883Y007648D01*
X013943Y007633D01*
X014003Y007615D01*
X014061Y007593D01*
X014118Y007567D01*
X014173Y007537D01*
X014226Y007504D01*
X014277Y007468D01*
X014325Y007429D01*
X014371Y007386D01*
X014414Y007341D01*
X014454Y007293D01*
X014491Y007243D01*
X014525Y007190D01*
X014556Y007136D01*
X014582Y007080D01*
X014606Y007022D01*
X014625Y006962D01*
X014641Y006902D01*
X014653Y006840D01*
X014661Y006779D01*
X014665Y006716D01*
X014665Y006654D01*
X014661Y006591D01*
X014653Y006530D01*
X014641Y006468D01*
X014625Y006408D01*
X014606Y006348D01*
X014582Y006290D01*
X014556Y006234D01*
X014525Y006180D01*
X014491Y006127D01*
X014454Y006077D01*
X014414Y006029D01*
X014371Y005984D01*
X014325Y005941D01*
X014277Y005902D01*
X014226Y005866D01*
X014173Y005833D01*
X014118Y005803D01*
X014061Y005777D01*
X014003Y005755D01*
X013943Y005737D01*
X013883Y005722D01*
X013821Y005711D01*
X013759Y005704D01*
X013697Y005701D01*
X013634Y005702D01*
X013572Y005707D01*
X013510Y005716D01*
X013449Y005729D01*
X013389Y005745D01*
X013330Y005766D01*
X013272Y005790D01*
X013216Y005818D01*
X013162Y005849D01*
X013110Y005883D01*
X013061Y005921D01*
X013013Y005962D01*
X012969Y006006D01*
X012927Y006052D01*
X012889Y006102D01*
X012853Y006153D01*
X012821Y006207D01*
X012793Y006262D01*
X012767Y006319D01*
X012746Y006378D01*
X012729Y006438D01*
X012715Y006499D01*
X012705Y006560D01*
X012699Y006623D01*
X012697Y006685D01*
X013131Y006385D02*
X013131Y005985D01*
X018681Y004935D02*
X018681Y004435D01*
X018931Y004185D01*
X018681Y003935D01*
X018681Y003435D01*
X018931Y003185D01*
X018681Y002935D01*
X018681Y002435D01*
X018931Y002185D01*
X018681Y001935D01*
X018681Y001435D01*
X018931Y001185D01*
X019431Y001185D01*
X019681Y001435D01*
X019681Y001935D01*
X019431Y002185D01*
X019681Y002435D01*
X019681Y002935D01*
X019431Y003185D01*
X019681Y003435D01*
X019681Y003935D01*
X019431Y004185D01*
X019681Y004435D01*
X019681Y004935D01*
X019431Y005185D01*
X018931Y005185D01*
X018681Y004935D01*
X007056Y002060D02*
X007056Y001560D01*
X006806Y001310D01*
X006306Y001310D01*
X006056Y001560D01*
X005806Y001310D01*
X005306Y001310D01*
X005056Y001560D01*
X004806Y001310D01*
X004306Y001310D01*
X004056Y001560D01*
X003806Y001310D01*
X003306Y001310D01*
X003056Y001560D01*
X002806Y001310D01*
X002306Y001310D01*
X002056Y001560D01*
X002056Y002060D01*
X002306Y002310D01*
X002806Y002310D01*
X003056Y002060D01*
X003306Y002310D01*
X003806Y002310D01*
X004056Y002060D01*
X004306Y002310D01*
X004806Y002310D01*
X005056Y002060D01*
X005306Y002310D01*
X005806Y002310D01*
X006056Y002060D01*
X006306Y002310D01*
X006806Y002310D01*
X007056Y002060D01*
X006431Y005185D02*
X005931Y005185D01*
X005681Y005435D01*
X005681Y005935D01*
X005931Y006185D01*
X005681Y006435D01*
X005681Y006935D01*
X005931Y007185D01*
X005681Y007435D01*
X005681Y007935D01*
X005931Y008185D01*
X006431Y008185D01*
X006681Y007935D01*
X006681Y007435D01*
X006431Y007185D01*
X006681Y006935D01*
X006681Y006435D01*
X006431Y006185D01*
X006681Y005935D01*
X006681Y005435D01*
X006431Y005185D01*
X001306Y004935D02*
X001306Y004435D01*
X001056Y004185D01*
X001306Y003935D01*
X001306Y003435D01*
X001056Y003185D01*
X001306Y002935D01*
X001306Y002435D01*
X001056Y002185D01*
X001306Y001935D01*
X001306Y001435D01*
X001056Y001185D01*
X000556Y001185D01*
X000306Y001435D01*
X000306Y001935D01*
X000556Y002185D01*
X000306Y002435D01*
X000306Y002935D01*
X000556Y003185D01*
X000306Y003435D01*
X000306Y003935D01*
X000556Y004185D01*
X000306Y004435D01*
X000306Y004935D01*
X000556Y005185D01*
X001056Y005185D01*
X001306Y004935D01*
X001056Y006185D02*
X000556Y006185D01*
X000306Y006435D01*
X000306Y006935D01*
X000556Y007185D01*
X000306Y007435D01*
X000306Y007935D01*
X000556Y008185D01*
X000306Y008435D01*
X000306Y008935D01*
X000556Y009185D01*
X000306Y009435D01*
X000306Y009935D01*
X000556Y010185D01*
X001056Y010185D01*
X001306Y009935D01*
X001306Y009435D01*
X001056Y009185D01*
X001306Y008935D01*
X001306Y008435D01*
X001056Y008185D01*
X001306Y007935D01*
X001306Y007435D01*
X001056Y007185D01*
X001306Y006935D01*
X001306Y006435D01*
X001056Y006185D01*
X001056Y011060D02*
X000556Y011060D01*
X000306Y011310D01*
X000306Y011810D01*
X000556Y012060D01*
X000306Y012310D01*
X000306Y012810D01*
X000556Y013060D01*
X000306Y013310D01*
X000306Y013810D01*
X000556Y014060D01*
X000306Y014310D01*
X000306Y014810D01*
X000556Y015060D01*
X001056Y015060D01*
X001306Y014810D01*
X001306Y014310D01*
X001056Y014060D01*
X001306Y013810D01*
X001306Y013310D01*
X001056Y013060D01*
X001306Y012810D01*
X001306Y012310D01*
X001056Y012060D01*
X001306Y011810D01*
X001306Y011310D01*
X001056Y011060D01*
D17*
X006516Y016365D03*
D18*
X005306Y016460D03*
X005306Y019910D03*
D19*
X005206Y019185D03*
X005206Y018185D03*
X005206Y017185D03*
D20*
X005306Y017685D03*
X005306Y018685D03*
D21*
X012106Y017185D03*
X014256Y017185D03*
D22*
X016681Y017260D03*
X018681Y017260D03*
X018681Y015110D03*
X016681Y015110D03*
X014181Y012760D03*
X014181Y010610D03*
X016181Y005760D03*
X016181Y003610D03*
M02*
