%
M48
M72
T01C0.0197
T02C0.0276
T03C0.0315
T04C0.0320
T05C0.0400
T06C0.0748
%
T01
X2556Y9685
X3556Y11560
X4556Y16935
X10181Y11685
X10681Y10185
X15181Y11185
T02
X7931Y17685
X7931Y16685
X13681Y7185
X13681Y6185
T03
X1606Y16585
X1976Y17205
X2306Y16585
X2976Y16585
X2666Y17205
T04
X7681Y19185
X8681Y19185
X9806Y17685
X9806Y16685
X8681Y15185
X8681Y14185
X8681Y13185
X8681Y12185
X8681Y11185
X8681Y10185
X8681Y9185
X8681Y8185
X8681Y7185
X8681Y6185
X8681Y5185
X8681Y4185
X8681Y3185
X8681Y2185
X6556Y3310
X5556Y3310
X11681Y3185
X11681Y2185
X11681Y4185
X11681Y5185
X11681Y6185
X11681Y7185
X11681Y8185
X11681Y9185
X11681Y10185
X11681Y11185
X11681Y12185
X11681Y13185
X11681Y14185
X11681Y15185
X11681Y17185
X11681Y18185
X11681Y19185
X14681Y17185
X16681Y17685
X18681Y17685
X18681Y14685
X16681Y14685
X16181Y13185
X16181Y12185
X14181Y13185
X13681Y14185
X13681Y15185
X14181Y10185
X16181Y8685
X16181Y7685
X16181Y6185
X16181Y3185
T05
X806Y1685
X806Y2685
X806Y3685
X806Y4685
X806Y6685
X806Y7685
X806Y8685
X806Y9685
X806Y11560
X806Y12560
X806Y13560
X806Y14560
X6056Y17185
X6056Y18185
X6056Y19185
X13681Y19685
X15681Y19685
X17181Y19685
X19181Y19685
X19181Y10685
X19181Y9685
X19181Y8685
X19181Y7685
X19181Y4685
X19181Y3685
X19181Y2685
X19181Y1685
X6556Y1810
X5556Y1810
X4556Y1810
X3556Y1810
X2556Y1810
X6181Y5685
X6181Y6685
X6181Y7685
T06
X869Y18685
X3743Y18685
M30
