G75*
G70*
%OFA0B0*%
%FSLAX24Y24*%
%IPPOS*%
%LPD*%
%AMOC8*
5,1,8,0,0,1.08239X$1,22.5*
%
%ADD10C,0.0000*%
%ADD11C,0.0520*%
%ADD12OC8,0.0520*%
%ADD13R,0.0740X0.0740*%
%ADD14C,0.0740*%
%ADD15C,0.0515*%
%ADD16C,0.1122*%
%ADD17R,0.0650X0.0650*%
%ADD18C,0.0650*%
%ADD19C,0.0600*%
%ADD20C,0.0160*%
%ADD21C,0.0317*%
D10*
X000181Y000685D02*
X000181Y020370D01*
X019866Y020370D01*
X019866Y000685D01*
X000181Y000685D01*
D11*
X008421Y002185D02*
X008941Y002185D01*
X008941Y003185D02*
X008421Y003185D01*
X008421Y004185D02*
X008941Y004185D01*
X008941Y005185D02*
X008421Y005185D01*
X008421Y006185D02*
X008941Y006185D01*
X008941Y007185D02*
X008421Y007185D01*
X008421Y008185D02*
X008941Y008185D01*
X008941Y009185D02*
X008421Y009185D01*
X008421Y010185D02*
X008941Y010185D01*
X008941Y011185D02*
X008421Y011185D01*
X008421Y012185D02*
X008941Y012185D01*
X008941Y013185D02*
X008421Y013185D01*
X008421Y014185D02*
X008941Y014185D01*
X008941Y015185D02*
X008421Y015185D01*
X011421Y015185D02*
X011941Y015185D01*
X011941Y014185D02*
X011421Y014185D01*
X011421Y013185D02*
X011941Y013185D01*
X011941Y012185D02*
X011421Y012185D01*
X011421Y011185D02*
X011941Y011185D01*
X011941Y010185D02*
X011421Y010185D01*
X011421Y009185D02*
X011941Y009185D01*
X011941Y008185D02*
X011421Y008185D01*
X011421Y007185D02*
X011941Y007185D01*
X011941Y006185D02*
X011421Y006185D01*
X011421Y005185D02*
X011941Y005185D01*
X011941Y004185D02*
X011421Y004185D01*
X011421Y003185D02*
X011941Y003185D01*
X011941Y002185D02*
X011421Y002185D01*
D12*
X016181Y003185D03*
X016181Y006185D03*
X016181Y007685D03*
X016181Y008685D03*
X014181Y010185D03*
X016181Y012185D03*
X016181Y013185D03*
X016681Y014685D03*
X018681Y014685D03*
X018681Y017685D03*
X016681Y017685D03*
X014681Y017185D03*
X013681Y015185D03*
X013681Y014185D03*
X014181Y013185D03*
X011681Y017185D03*
X011681Y018185D03*
X011681Y019185D03*
X009806Y017685D03*
X009806Y016685D03*
X008681Y019185D03*
X007681Y019185D03*
X006556Y003310D03*
X005556Y003310D03*
D13*
X006556Y001810D03*
X006181Y007685D03*
X000806Y009685D03*
X000806Y014560D03*
X000806Y004685D03*
X013681Y019685D03*
X017181Y019685D03*
X019181Y010685D03*
X019181Y004685D03*
D14*
X019181Y003685D03*
X019181Y002685D03*
X019181Y001685D03*
X019181Y007685D03*
X019181Y008685D03*
X019181Y009685D03*
X019181Y019685D03*
X015681Y019685D03*
X006181Y006685D03*
X006181Y005685D03*
X005556Y001810D03*
X004556Y001810D03*
X003556Y001810D03*
X002556Y001810D03*
X000806Y001685D03*
X000806Y002685D03*
X000806Y003685D03*
X000806Y006685D03*
X000806Y007685D03*
X000806Y008685D03*
X000806Y011560D03*
X000806Y012560D03*
X000806Y013560D03*
D15*
X001606Y016585D03*
X001976Y017205D03*
X002306Y016585D03*
X002976Y016585D03*
X002666Y017205D03*
D16*
X003743Y018685D03*
X000869Y018685D03*
D17*
X007931Y017685D03*
X013681Y007185D03*
D18*
X013681Y006185D03*
X007931Y016685D03*
D19*
X006356Y017185D02*
X005756Y017185D01*
X005756Y018185D02*
X006356Y018185D01*
X006356Y019185D02*
X005756Y019185D01*
D20*
X006056Y019185D02*
X005181Y019185D01*
X004556Y018560D01*
X004556Y016935D01*
X004206Y016585D01*
X002976Y016585D01*
X004181Y015185D02*
X008681Y015185D01*
X008681Y014185D02*
X004181Y014185D01*
X003556Y013560D01*
X000806Y013560D01*
X000806Y012560D02*
X003556Y012560D01*
X004181Y013185D01*
X008681Y013185D01*
X008681Y012185D02*
X004681Y012185D01*
X003556Y011560D01*
X000806Y011560D01*
X000806Y009685D02*
X002556Y009685D01*
X004556Y011185D01*
X008681Y011185D01*
X008681Y010185D02*
X005181Y010185D01*
X003681Y008685D01*
X000806Y008685D01*
X000806Y007685D02*
X003681Y007685D01*
X005181Y009185D01*
X008681Y009185D01*
X010181Y010685D02*
X010181Y011685D01*
X009681Y012185D02*
X009681Y004185D01*
X009681Y003685D01*
X009181Y003185D01*
X008681Y003185D01*
X007681Y003185D01*
X007556Y003310D01*
X006556Y003310D01*
X007306Y002560D02*
X007681Y002185D01*
X008681Y002185D01*
X009681Y001185D02*
X010181Y001685D01*
X010181Y010685D01*
X010681Y010185D02*
X010681Y002685D01*
X011181Y002185D01*
X011681Y002185D01*
X012181Y001685D01*
X019181Y001685D01*
X019181Y003685D02*
X017681Y003685D01*
X017181Y003185D01*
X016181Y003185D01*
X011681Y003185D01*
X011681Y004185D02*
X017181Y004185D01*
X017681Y004685D01*
X019181Y004685D01*
X018181Y006185D02*
X018181Y006685D01*
X018681Y007185D01*
X019181Y007685D01*
X019181Y008685D02*
X017681Y008685D01*
X015181Y011185D01*
X011681Y011185D01*
X010681Y011185D02*
X010681Y012185D01*
X010181Y012685D01*
X010181Y013685D01*
X011681Y015185D01*
X010681Y016185D01*
X011681Y015185D01*
X013681Y015185D01*
X014681Y015185D01*
X014681Y017185D01*
X016681Y017685D02*
X016681Y018685D01*
X015681Y019685D01*
X018681Y019185D02*
X018681Y017685D01*
X018681Y019185D02*
X019181Y019685D01*
X014681Y015185D02*
X015181Y014685D01*
X016681Y014685D01*
X018681Y014685D01*
X017181Y013685D02*
X019181Y011685D01*
X019181Y010685D01*
X019181Y009685D02*
X017681Y009685D01*
X015556Y011810D01*
X013306Y011810D01*
X012931Y012185D01*
X011681Y012185D01*
X011681Y013185D02*
X014181Y013185D01*
X015431Y013935D01*
X016931Y013935D01*
X017181Y013685D01*
X011681Y010185D02*
X010681Y011185D01*
X009681Y012185D02*
X010181Y012685D01*
X010681Y016185D02*
X010681Y016810D01*
X009806Y017685D01*
X007931Y017685D01*
X006056Y018185D01*
X006056Y019185D02*
X006681Y019185D01*
X007681Y019185D01*
X004181Y015185D02*
X003556Y014560D01*
X000806Y014560D01*
X006181Y007685D02*
X007181Y007685D01*
X007681Y007185D01*
X008681Y007185D01*
X008681Y006185D02*
X007681Y006185D01*
X007181Y005685D01*
X006181Y005685D01*
X007181Y004685D02*
X004681Y004685D01*
X002681Y006685D01*
X000806Y006685D01*
X000806Y004685D02*
X002681Y004685D01*
X003181Y004185D01*
X008681Y004185D01*
X008681Y005185D02*
X007681Y005185D01*
X007181Y004685D01*
X007306Y002560D02*
X003431Y002560D01*
X002181Y003685D01*
X000806Y003685D01*
X006556Y001810D02*
X007181Y001185D01*
X009681Y001185D01*
X011681Y005185D02*
X017181Y005185D01*
X018181Y006185D01*
X016181Y006185D02*
X016181Y007685D01*
X013681Y007185D02*
X011681Y007185D01*
X011681Y017185D02*
X011681Y018185D01*
D21*
X010181Y011685D03*
X010681Y010185D03*
X015181Y011185D03*
X004556Y016935D03*
X003556Y011560D03*
X002556Y009685D03*
M02*
