G75*
G70*
%OFA0B0*%
%FSLAX24Y24*%
%IPPOS*%
%LPD*%
%AMOC8*
5,1,8,0,0,1.08239X$1,22.5*
%
%ADD10C,0.0000*%
%ADD11C,0.0520*%
%ADD12OC8,0.0520*%
%ADD13R,0.0740X0.0740*%
%ADD14C,0.0740*%
%ADD15C,0.0515*%
%ADD16C,0.1122*%
%ADD17R,0.0650X0.0650*%
%ADD18C,0.0650*%
%ADD19C,0.0600*%
%ADD20C,0.0317*%
%ADD21C,0.0160*%
D10*
X000181Y000685D02*
X000181Y020370D01*
X019866Y020370D01*
X019866Y000685D01*
X000181Y000685D01*
D11*
X008421Y002185D02*
X008941Y002185D01*
X008941Y003185D02*
X008421Y003185D01*
X008421Y004185D02*
X008941Y004185D01*
X008941Y005185D02*
X008421Y005185D01*
X008421Y006185D02*
X008941Y006185D01*
X008941Y007185D02*
X008421Y007185D01*
X008421Y008185D02*
X008941Y008185D01*
X008941Y009185D02*
X008421Y009185D01*
X008421Y010185D02*
X008941Y010185D01*
X008941Y011185D02*
X008421Y011185D01*
X008421Y012185D02*
X008941Y012185D01*
X008941Y013185D02*
X008421Y013185D01*
X008421Y014185D02*
X008941Y014185D01*
X008941Y015185D02*
X008421Y015185D01*
X011421Y015185D02*
X011941Y015185D01*
X011941Y014185D02*
X011421Y014185D01*
X011421Y013185D02*
X011941Y013185D01*
X011941Y012185D02*
X011421Y012185D01*
X011421Y011185D02*
X011941Y011185D01*
X011941Y010185D02*
X011421Y010185D01*
X011421Y009185D02*
X011941Y009185D01*
X011941Y008185D02*
X011421Y008185D01*
X011421Y007185D02*
X011941Y007185D01*
X011941Y006185D02*
X011421Y006185D01*
X011421Y005185D02*
X011941Y005185D01*
X011941Y004185D02*
X011421Y004185D01*
X011421Y003185D02*
X011941Y003185D01*
X011941Y002185D02*
X011421Y002185D01*
D12*
X016181Y003185D03*
X016181Y006185D03*
X016181Y007685D03*
X016181Y008685D03*
X014181Y010185D03*
X016181Y012185D03*
X016181Y013185D03*
X016681Y014685D03*
X018681Y014685D03*
X018681Y017685D03*
X016681Y017685D03*
X014681Y017185D03*
X013681Y015185D03*
X013681Y014185D03*
X014181Y013185D03*
X011681Y017185D03*
X011681Y018185D03*
X011681Y019185D03*
X009806Y017685D03*
X009806Y016685D03*
X008681Y019185D03*
X007681Y019185D03*
X006556Y003310D03*
X005556Y003310D03*
D13*
X006556Y001810D03*
X006181Y007685D03*
X000806Y009685D03*
X000806Y014560D03*
X000806Y004685D03*
X013681Y019685D03*
X017181Y019685D03*
X019181Y010685D03*
X019181Y004685D03*
D14*
X019181Y003685D03*
X019181Y002685D03*
X019181Y001685D03*
X019181Y007685D03*
X019181Y008685D03*
X019181Y009685D03*
X019181Y019685D03*
X015681Y019685D03*
X006181Y006685D03*
X006181Y005685D03*
X005556Y001810D03*
X004556Y001810D03*
X003556Y001810D03*
X002556Y001810D03*
X000806Y001685D03*
X000806Y002685D03*
X000806Y003685D03*
X000806Y006685D03*
X000806Y007685D03*
X000806Y008685D03*
X000806Y011560D03*
X000806Y012560D03*
X000806Y013560D03*
D15*
X001606Y016585D03*
X001976Y017205D03*
X002306Y016585D03*
X002976Y016585D03*
X002666Y017205D03*
D16*
X003743Y018685D03*
X000869Y018685D03*
D17*
X007931Y017685D03*
X013681Y007185D03*
D18*
X013681Y006185D03*
X007931Y016685D03*
D19*
X006356Y017185D02*
X005756Y017185D01*
X005756Y018185D02*
X006356Y018185D01*
X006356Y019185D02*
X005756Y019185D01*
D20*
X004556Y016935D03*
X003556Y011560D03*
X002556Y009685D03*
X010181Y011685D03*
X010681Y010185D03*
X015181Y011185D03*
D21*
X015181Y015185D01*
X017681Y017685D01*
X018681Y017685D01*
X018384Y017332D02*
X017724Y017332D01*
X017797Y017405D02*
X018311Y017405D01*
X018491Y017225D01*
X018872Y017225D01*
X019141Y017495D01*
X019141Y017876D01*
X018872Y018145D01*
X018491Y018145D01*
X018311Y017965D01*
X017737Y017965D01*
X017626Y017965D01*
X017523Y017923D01*
X017141Y017541D01*
X017141Y017876D01*
X016872Y018145D01*
X016491Y018145D01*
X016221Y017876D01*
X016221Y017495D01*
X016491Y017225D01*
X016826Y017225D01*
X014944Y015344D01*
X014901Y015241D01*
X014901Y015130D01*
X014901Y011412D01*
X014878Y011388D01*
X014823Y011257D01*
X014823Y011114D01*
X014878Y010982D01*
X014978Y010881D01*
X015110Y010827D01*
X015253Y010827D01*
X015384Y010881D01*
X015485Y010982D01*
X015540Y011114D01*
X015540Y011257D01*
X015485Y011388D01*
X015461Y011412D01*
X015461Y015069D01*
X017797Y017405D01*
X017566Y017174D02*
X019666Y017174D01*
X019666Y017332D02*
X018979Y017332D01*
X019138Y017491D02*
X019666Y017491D01*
X019666Y017649D02*
X019141Y017649D01*
X019141Y017808D02*
X019666Y017808D01*
X019666Y017967D02*
X019051Y017967D01*
X018892Y018125D02*
X019666Y018125D01*
X019666Y018284D02*
X014676Y018284D01*
X014834Y018442D02*
X019666Y018442D01*
X019666Y018601D02*
X014993Y018601D01*
X015151Y018759D02*
X019666Y018759D01*
X019666Y018918D02*
X015310Y018918D01*
X015468Y019076D02*
X019666Y019076D01*
X019666Y019235D02*
X019537Y019235D01*
X019504Y019202D02*
X019665Y019362D01*
X019666Y019367D01*
X019666Y011223D01*
X019634Y011255D01*
X018729Y011255D01*
X018611Y011138D01*
X018611Y010232D01*
X018729Y010115D01*
X018805Y010115D01*
X018698Y010008D01*
X018611Y009799D01*
X018611Y009572D01*
X018698Y009362D01*
X018859Y009202D01*
X018899Y009185D01*
X018859Y009169D01*
X018698Y009008D01*
X018611Y008799D01*
X018611Y008572D01*
X018698Y008362D01*
X018859Y008202D01*
X018899Y008185D01*
X018859Y008169D01*
X018698Y008008D01*
X018611Y007799D01*
X018611Y007572D01*
X018698Y007362D01*
X018859Y007202D01*
X019068Y007115D01*
X019295Y007115D01*
X019504Y007202D01*
X019665Y007362D01*
X019666Y007367D01*
X019666Y005223D01*
X019634Y005255D01*
X018729Y005255D01*
X018611Y005138D01*
X018611Y004232D01*
X018729Y004115D01*
X018805Y004115D01*
X018698Y004008D01*
X018611Y003799D01*
X018611Y003572D01*
X018698Y003362D01*
X018859Y003202D01*
X018928Y003173D01*
X018893Y003156D01*
X018823Y003105D01*
X018762Y003044D01*
X018711Y002974D01*
X018672Y002896D01*
X018645Y002814D01*
X018631Y002729D01*
X018631Y002705D01*
X019161Y002705D01*
X019161Y002665D01*
X018631Y002665D01*
X018631Y002642D01*
X018645Y002557D01*
X018672Y002474D01*
X018711Y002397D01*
X018762Y002327D01*
X018823Y002266D01*
X018893Y002215D01*
X018928Y002197D01*
X018859Y002169D01*
X018698Y002008D01*
X018611Y001799D01*
X018611Y001572D01*
X018698Y001362D01*
X018859Y001202D01*
X019068Y001115D01*
X019295Y001115D01*
X019504Y001202D01*
X019665Y001362D01*
X019666Y001367D01*
X019666Y000885D01*
X005027Y000885D01*
X005400Y001258D01*
X005443Y001240D01*
X005670Y001240D01*
X005879Y001327D01*
X005986Y001434D01*
X005986Y001357D01*
X006104Y001240D01*
X007009Y001240D01*
X007126Y001357D01*
X007126Y002263D01*
X007009Y002380D01*
X006104Y002380D01*
X005986Y002263D01*
X005986Y002186D01*
X005907Y002265D01*
X006492Y002850D01*
X006747Y002850D01*
X007016Y003120D01*
X007016Y003501D01*
X006747Y003770D01*
X006366Y003770D01*
X006096Y003501D01*
X006096Y003246D01*
X005996Y003146D01*
X005996Y003310D01*
X005557Y003310D01*
X005557Y003311D01*
X005556Y003311D01*
X005556Y003750D01*
X005374Y003750D01*
X005116Y003493D01*
X005116Y003311D01*
X005556Y003311D01*
X005556Y003310D01*
X005116Y003310D01*
X005116Y003128D01*
X005374Y002870D01*
X005556Y002870D01*
X005556Y003310D01*
X005557Y003310D01*
X005557Y002870D01*
X005721Y002870D01*
X005319Y002469D01*
X005276Y002366D01*
X005276Y002311D01*
X005234Y002294D01*
X005073Y002133D01*
X005044Y002064D01*
X005027Y002099D01*
X004976Y002169D01*
X004915Y002230D01*
X004845Y002281D01*
X004768Y002320D01*
X004685Y002347D01*
X004600Y002360D01*
X004576Y002360D01*
X004576Y001831D01*
X004536Y001831D01*
X004536Y002360D01*
X004513Y002360D01*
X004428Y002347D01*
X004345Y002320D01*
X004268Y002281D01*
X004198Y002230D01*
X004137Y002169D01*
X004086Y002099D01*
X004068Y002064D01*
X004040Y002133D01*
X003879Y002294D01*
X003836Y002311D01*
X003836Y011333D01*
X003860Y011357D01*
X003915Y011489D01*
X003915Y011632D01*
X003860Y011763D01*
X003759Y011864D01*
X003628Y011919D01*
X003485Y011919D01*
X003353Y011864D01*
X003253Y011763D01*
X003198Y011632D01*
X003198Y011489D01*
X003253Y011357D01*
X003276Y011333D01*
X003276Y002311D01*
X003234Y002294D01*
X003073Y002133D01*
X003056Y002093D01*
X003040Y002133D01*
X002879Y002294D01*
X002836Y002311D01*
X002836Y009458D01*
X002860Y009482D01*
X002915Y009614D01*
X002915Y009757D01*
X002860Y009888D01*
X002759Y009989D01*
X002628Y010044D01*
X002485Y010044D01*
X002353Y009989D01*
X002253Y009888D01*
X002198Y009757D01*
X002198Y009614D01*
X002253Y009482D01*
X002276Y009458D01*
X002276Y002311D01*
X002234Y002294D01*
X002073Y002133D01*
X001986Y001924D01*
X001986Y001697D01*
X002073Y001487D01*
X002234Y001327D01*
X002443Y001240D01*
X002670Y001240D01*
X002879Y001327D01*
X003040Y001487D01*
X003056Y001528D01*
X003073Y001487D01*
X003234Y001327D01*
X003443Y001240D01*
X003670Y001240D01*
X003879Y001327D01*
X004040Y001487D01*
X004068Y001557D01*
X004086Y001522D01*
X004137Y001452D01*
X004198Y001391D01*
X004268Y001340D01*
X004345Y001301D01*
X004428Y001274D01*
X004513Y001260D01*
X004536Y001260D01*
X004536Y001790D01*
X004576Y001790D01*
X004576Y001260D01*
X004600Y001260D01*
X004613Y001262D01*
X004565Y001215D01*
X001672Y001215D01*
X001359Y001529D01*
X001376Y001572D01*
X001376Y001799D01*
X001290Y002008D01*
X001129Y002169D01*
X001060Y002197D01*
X001095Y002215D01*
X001165Y002266D01*
X001226Y002327D01*
X001277Y002397D01*
X001316Y002474D01*
X001343Y002557D01*
X001356Y002642D01*
X001356Y002665D01*
X000827Y002665D01*
X000827Y002705D01*
X001356Y002705D01*
X001356Y002729D01*
X001343Y002814D01*
X001316Y002896D01*
X001277Y002974D01*
X001226Y003044D01*
X001165Y003105D01*
X001095Y003156D01*
X001060Y003173D01*
X001129Y003202D01*
X001290Y003362D01*
X001376Y003572D01*
X001376Y003799D01*
X001290Y004008D01*
X001182Y004115D01*
X001259Y004115D01*
X001376Y004232D01*
X001376Y005138D01*
X001259Y005255D01*
X000381Y005255D01*
X000381Y006304D01*
X000484Y006202D01*
X000693Y006115D01*
X000920Y006115D01*
X001129Y006202D01*
X001290Y006362D01*
X001376Y006572D01*
X001376Y006799D01*
X001290Y007008D01*
X001129Y007169D01*
X001089Y007185D01*
X001129Y007202D01*
X001290Y007362D01*
X001376Y007572D01*
X001376Y007799D01*
X001290Y008008D01*
X001129Y008169D01*
X001089Y008185D01*
X001129Y008202D01*
X001290Y008362D01*
X001376Y008572D01*
X001376Y008799D01*
X001290Y009008D01*
X001182Y009115D01*
X001259Y009115D01*
X001376Y009232D01*
X001376Y010138D01*
X001259Y010255D01*
X000381Y010255D01*
X000381Y011179D01*
X000484Y011077D01*
X000693Y010990D01*
X000920Y010990D01*
X001129Y011077D01*
X001290Y011237D01*
X001376Y011447D01*
X001376Y011674D01*
X001290Y011883D01*
X001129Y012044D01*
X001089Y012060D01*
X001129Y012077D01*
X001290Y012237D01*
X001376Y012447D01*
X001376Y012674D01*
X001290Y012883D01*
X001129Y013044D01*
X001089Y013060D01*
X001129Y013077D01*
X001290Y013237D01*
X001376Y013447D01*
X001376Y013674D01*
X001290Y013883D01*
X001182Y013990D01*
X001259Y013990D01*
X001376Y014107D01*
X001376Y015013D01*
X001259Y015130D01*
X000381Y015130D01*
X000381Y018097D01*
X000438Y018040D01*
X000718Y017924D01*
X001021Y017924D01*
X001300Y018040D01*
X001515Y018254D01*
X001630Y018534D01*
X001630Y018837D01*
X001515Y019116D01*
X001300Y019330D01*
X001021Y019446D01*
X000718Y019446D01*
X000438Y019330D01*
X000381Y019274D01*
X000381Y020170D01*
X013172Y020170D01*
X013167Y020166D01*
X013144Y020125D01*
X013131Y020079D01*
X013131Y019705D01*
X013661Y019705D01*
X013661Y019665D01*
X013131Y019665D01*
X013131Y019292D01*
X013144Y019246D01*
X013167Y019205D01*
X013201Y019171D01*
X013242Y019148D01*
X013288Y019135D01*
X013661Y019135D01*
X013661Y019665D01*
X013701Y019665D01*
X013701Y019135D01*
X014075Y019135D01*
X014121Y019148D01*
X014162Y019171D01*
X014195Y019205D01*
X014219Y019246D01*
X014231Y019292D01*
X014231Y019665D01*
X013702Y019665D01*
X013702Y019705D01*
X014231Y019705D01*
X014231Y020079D01*
X014219Y020125D01*
X014195Y020166D01*
X014191Y020170D01*
X015363Y020170D01*
X015359Y020169D01*
X015198Y020008D01*
X015111Y019799D01*
X015111Y019572D01*
X015129Y019529D01*
X013944Y018344D01*
X012065Y016465D01*
X011126Y016465D01*
X011023Y016423D01*
X010944Y016344D01*
X010065Y015465D01*
X009312Y015465D01*
X009202Y015575D01*
X009033Y015645D01*
X008330Y015645D01*
X008161Y015575D01*
X008031Y015446D01*
X007961Y015277D01*
X007961Y015094D01*
X008031Y014925D01*
X008161Y014795D01*
X008330Y014725D01*
X009033Y014725D01*
X009202Y014795D01*
X009312Y014905D01*
X010065Y014905D01*
X010401Y014569D01*
X010401Y012301D01*
X010144Y012044D01*
X010110Y012044D01*
X009978Y011989D01*
X009878Y011888D01*
X009823Y011757D01*
X009823Y011614D01*
X009878Y011482D01*
X009978Y011381D01*
X010110Y011327D01*
X010253Y011327D01*
X010384Y011381D01*
X010485Y011482D01*
X010540Y011614D01*
X010540Y011648D01*
X010840Y011948D01*
X010919Y012027D01*
X010961Y012130D01*
X010961Y014630D01*
X010961Y014741D01*
X010919Y014844D01*
X010577Y015185D01*
X011297Y015905D01*
X012126Y015905D01*
X012237Y015905D01*
X012340Y015948D01*
X014340Y017948D01*
X015525Y019133D01*
X015568Y019115D01*
X015795Y019115D01*
X016004Y019202D01*
X016165Y019362D01*
X016251Y019572D01*
X016251Y019799D01*
X016165Y020008D01*
X016004Y020169D01*
X016000Y020170D01*
X016672Y020170D01*
X016667Y020166D01*
X016644Y020125D01*
X016631Y020079D01*
X016631Y019705D01*
X017161Y019705D01*
X017161Y019665D01*
X016631Y019665D01*
X016631Y019292D01*
X016644Y019246D01*
X016667Y019205D01*
X016701Y019171D01*
X016742Y019148D01*
X016788Y019135D01*
X017161Y019135D01*
X017161Y019665D01*
X017201Y019665D01*
X017201Y019135D01*
X017575Y019135D01*
X017621Y019148D01*
X017662Y019171D01*
X017695Y019205D01*
X017719Y019246D01*
X017731Y019292D01*
X017731Y019665D01*
X017202Y019665D01*
X017202Y019705D01*
X017731Y019705D01*
X017731Y020079D01*
X017719Y020125D01*
X017695Y020166D01*
X017691Y020170D01*
X018863Y020170D01*
X018859Y020169D01*
X018698Y020008D01*
X018611Y019799D01*
X018611Y019572D01*
X018698Y019362D01*
X018859Y019202D01*
X019068Y019115D01*
X019295Y019115D01*
X019504Y019202D01*
X018826Y019235D02*
X017713Y019235D01*
X017731Y019393D02*
X018685Y019393D01*
X018620Y019552D02*
X017731Y019552D01*
X017731Y019711D02*
X018611Y019711D01*
X018641Y019869D02*
X017731Y019869D01*
X017731Y020028D02*
X018718Y020028D01*
X017201Y019552D02*
X017161Y019552D01*
X017161Y019393D02*
X017201Y019393D01*
X017201Y019235D02*
X017161Y019235D01*
X016650Y019235D02*
X016037Y019235D01*
X016177Y019393D02*
X016631Y019393D01*
X016631Y019552D02*
X016243Y019552D01*
X016251Y019711D02*
X016631Y019711D01*
X016631Y019869D02*
X016222Y019869D01*
X016145Y020028D02*
X016631Y020028D01*
X015681Y019685D02*
X014181Y018185D01*
X012181Y016185D01*
X011181Y016185D01*
X010181Y015185D01*
X008681Y015185D01*
X010181Y015185D01*
X010681Y014685D01*
X010681Y012185D01*
X010181Y011685D01*
X009834Y011783D02*
X009173Y011783D01*
X009202Y011795D02*
X009331Y011925D01*
X009401Y012094D01*
X009401Y012277D01*
X009331Y012446D01*
X009202Y012575D01*
X009033Y012645D01*
X008330Y012645D01*
X008161Y012575D01*
X008031Y012446D01*
X007961Y012277D01*
X007961Y012094D01*
X008031Y011925D01*
X008161Y011795D01*
X008330Y011725D01*
X009033Y011725D01*
X009202Y011795D01*
X009338Y011942D02*
X009931Y011942D01*
X010201Y012100D02*
X009401Y012100D01*
X009401Y012259D02*
X010359Y012259D01*
X010401Y012418D02*
X009343Y012418D01*
X009200Y012576D02*
X010401Y012576D01*
X010401Y012735D02*
X009055Y012735D01*
X009033Y012725D02*
X009202Y012795D01*
X009331Y012925D01*
X009401Y013094D01*
X009401Y013277D01*
X009331Y013446D01*
X009202Y013575D01*
X009033Y013645D01*
X008330Y013645D01*
X008161Y013575D01*
X008031Y013446D01*
X007961Y013277D01*
X007961Y013094D01*
X008031Y012925D01*
X008161Y012795D01*
X008330Y012725D01*
X009033Y012725D01*
X009300Y012893D02*
X010401Y012893D01*
X010401Y013052D02*
X009384Y013052D01*
X009401Y013210D02*
X010401Y013210D01*
X010401Y013369D02*
X009363Y013369D01*
X009250Y013527D02*
X010401Y013527D01*
X010401Y013686D02*
X005077Y013686D01*
X004961Y013801D02*
X004961Y015630D01*
X004961Y016130D01*
X004961Y016755D01*
X004961Y016866D01*
X004919Y016969D01*
X004915Y016973D01*
X004915Y017007D01*
X004860Y017138D01*
X004759Y017239D01*
X004628Y017294D01*
X004485Y017294D01*
X004353Y017239D01*
X004253Y017138D01*
X004198Y017007D01*
X004198Y016864D01*
X004233Y016780D01*
X003570Y017443D01*
X003467Y017485D01*
X003356Y017485D01*
X003033Y017485D01*
X002926Y017593D01*
X002757Y017663D01*
X002575Y017663D01*
X002407Y017593D01*
X002321Y017507D01*
X002236Y017593D01*
X002067Y017663D01*
X001885Y017663D01*
X001717Y017593D01*
X001589Y017464D01*
X001519Y017296D01*
X001519Y017114D01*
X001558Y017021D01*
X001504Y017012D01*
X001438Y016991D01*
X001377Y016959D01*
X001321Y016919D01*
X001273Y016870D01*
X001232Y016815D01*
X001201Y016753D01*
X001180Y016688D01*
X001169Y016620D01*
X001169Y016586D01*
X001606Y016586D01*
X001606Y016585D01*
X001169Y016585D01*
X001169Y016551D01*
X001180Y016483D01*
X001201Y016417D01*
X001232Y016356D01*
X001273Y016300D01*
X001321Y016252D01*
X001377Y016211D01*
X001438Y016180D01*
X001504Y016159D01*
X001572Y016148D01*
X001606Y016148D01*
X001606Y016585D01*
X001607Y016585D01*
X001607Y016148D01*
X001641Y016148D01*
X001709Y016159D01*
X001774Y016180D01*
X001836Y016211D01*
X001891Y016252D01*
X001940Y016300D01*
X001942Y016303D01*
X002026Y016218D01*
X002026Y014313D01*
X002025Y014261D01*
X002026Y014258D01*
X002026Y014255D01*
X002046Y014206D01*
X002066Y014157D01*
X002068Y014155D01*
X002069Y014152D01*
X002106Y014115D01*
X007443Y008530D01*
X007444Y008527D01*
X007481Y008490D01*
X007517Y008452D01*
X007520Y008450D01*
X007523Y008448D01*
X007571Y008428D01*
X007619Y008407D01*
X007623Y008407D01*
X007626Y008405D01*
X007679Y008405D01*
X007731Y008404D01*
X007734Y008405D01*
X008040Y008405D01*
X008014Y008354D01*
X007992Y008288D01*
X007981Y008220D01*
X007981Y008186D01*
X008681Y008186D01*
X008681Y008185D01*
X007981Y008185D01*
X007981Y008151D01*
X007992Y008082D01*
X008014Y008016D01*
X008045Y007955D01*
X008086Y007899D01*
X008135Y007850D01*
X008191Y007809D01*
X008252Y007778D01*
X008318Y007756D01*
X008387Y007745D01*
X008681Y007745D01*
X008681Y008185D01*
X008682Y008185D01*
X008682Y008186D01*
X009381Y008186D01*
X009381Y008220D01*
X009371Y008288D01*
X009349Y008354D01*
X009323Y008405D01*
X009565Y008405D01*
X009944Y008027D01*
X010023Y007948D01*
X010126Y007905D01*
X011051Y007905D01*
X011161Y007795D01*
X011330Y007725D01*
X012033Y007725D01*
X012202Y007795D01*
X012331Y007925D01*
X012401Y008094D01*
X012401Y008277D01*
X012331Y008446D01*
X012202Y008575D01*
X012033Y008645D01*
X011330Y008645D01*
X011161Y008575D01*
X011051Y008465D01*
X010297Y008465D01*
X009840Y008923D01*
X009737Y008965D01*
X009626Y008965D01*
X009348Y008965D01*
X009401Y009094D01*
X009401Y009277D01*
X009348Y009405D01*
X009566Y009405D01*
X009565Y009405D02*
X009944Y009027D01*
X010023Y008948D01*
X010126Y008905D01*
X011051Y008905D01*
X011161Y008795D01*
X011330Y008725D01*
X012033Y008725D01*
X012202Y008795D01*
X012331Y008925D01*
X012401Y009094D01*
X012401Y009277D01*
X012331Y009446D01*
X012202Y009575D01*
X012033Y009645D01*
X011330Y009645D01*
X011161Y009575D01*
X011051Y009465D01*
X010297Y009465D01*
X009840Y009923D01*
X009737Y009965D01*
X009626Y009965D01*
X009348Y009965D01*
X009401Y010094D01*
X009401Y010277D01*
X009348Y010405D01*
X010065Y010405D01*
X010323Y010148D01*
X010323Y010114D01*
X010378Y009982D01*
X010478Y009881D01*
X010610Y009827D01*
X010753Y009827D01*
X010884Y009881D01*
X010985Y009982D01*
X010996Y010009D01*
X011031Y009925D01*
X011161Y009795D01*
X011330Y009725D01*
X012033Y009725D01*
X012202Y009795D01*
X012331Y009925D01*
X012401Y010094D01*
X012401Y010277D01*
X012331Y010446D01*
X012202Y010575D01*
X012033Y010645D01*
X011330Y010645D01*
X011161Y010575D01*
X011031Y010446D01*
X010996Y010361D01*
X010985Y010388D01*
X010884Y010489D01*
X010753Y010544D01*
X010719Y010544D01*
X010419Y010844D01*
X010340Y010923D01*
X010237Y010965D01*
X009348Y010965D01*
X009401Y011094D01*
X009401Y011277D01*
X009331Y011446D01*
X009202Y011575D01*
X009033Y011645D01*
X008330Y011645D01*
X008161Y011575D01*
X008031Y011446D01*
X007961Y011277D01*
X007961Y011094D01*
X008015Y010965D01*
X007797Y010965D01*
X005419Y013344D01*
X004961Y013801D01*
X004961Y013844D02*
X008112Y013844D01*
X008161Y013795D02*
X008031Y013925D01*
X007961Y014094D01*
X007961Y014277D01*
X008031Y014446D01*
X008161Y014575D01*
X008330Y014645D01*
X009033Y014645D01*
X009202Y014575D01*
X009331Y014446D01*
X009401Y014277D01*
X009401Y014094D01*
X009331Y013925D01*
X009202Y013795D01*
X009033Y013725D01*
X008330Y013725D01*
X008161Y013795D01*
X007999Y014003D02*
X004961Y014003D01*
X004961Y014162D02*
X007961Y014162D01*
X007979Y014320D02*
X004961Y014320D01*
X004961Y014479D02*
X008064Y014479D01*
X008310Y014637D02*
X004961Y014637D01*
X004961Y014796D02*
X008161Y014796D01*
X008019Y014954D02*
X004961Y014954D01*
X004961Y015113D02*
X007961Y015113D01*
X007961Y015271D02*
X004961Y015271D01*
X004961Y015430D02*
X008025Y015430D01*
X008193Y015588D02*
X004961Y015588D01*
X004961Y015747D02*
X010347Y015747D01*
X010189Y015588D02*
X009170Y015588D01*
X009624Y016245D02*
X009366Y016503D01*
X009366Y016685D01*
X009806Y016685D01*
X009806Y016686D01*
X009806Y017125D01*
X009624Y017125D01*
X009366Y016868D01*
X009366Y016686D01*
X009806Y016686D01*
X009807Y016686D01*
X009807Y017125D01*
X009989Y017125D01*
X010246Y016868D01*
X010246Y016686D01*
X009807Y016686D01*
X009807Y016685D01*
X010246Y016685D01*
X010246Y016503D01*
X009989Y016245D01*
X009807Y016245D01*
X009807Y016685D01*
X009806Y016685D01*
X009806Y016245D01*
X009624Y016245D01*
X009488Y016381D02*
X008335Y016381D01*
X008317Y016356D02*
X008363Y016421D01*
X008399Y016491D01*
X008424Y016567D01*
X008436Y016646D01*
X008436Y016685D01*
X007932Y016685D01*
X007932Y016686D01*
X008436Y016686D01*
X008436Y016725D01*
X008424Y016804D01*
X008399Y016879D01*
X008363Y016950D01*
X008317Y017014D01*
X008260Y017071D01*
X008196Y017117D01*
X008125Y017153D01*
X008103Y017160D01*
X008339Y017160D01*
X008456Y017277D01*
X008456Y018093D01*
X008339Y018210D01*
X007524Y018210D01*
X007406Y018093D01*
X007406Y017277D01*
X007524Y017160D01*
X007759Y017160D01*
X007738Y017153D01*
X007667Y017117D01*
X007602Y017071D01*
X007546Y017014D01*
X007499Y016950D01*
X007463Y016879D01*
X007439Y016804D01*
X007426Y016725D01*
X007426Y016686D01*
X007931Y016686D01*
X007931Y016685D01*
X007426Y016685D01*
X007426Y016646D01*
X007439Y016567D01*
X007463Y016491D01*
X007499Y016421D01*
X007546Y016356D01*
X007602Y016300D01*
X007667Y016253D01*
X007738Y016217D01*
X007813Y016193D01*
X007892Y016180D01*
X007931Y016180D01*
X007931Y016685D01*
X007932Y016685D01*
X007932Y016180D01*
X007971Y016180D01*
X008050Y016193D01*
X008125Y016217D01*
X008196Y016253D01*
X008260Y016300D01*
X008317Y016356D01*
X008415Y016540D02*
X009366Y016540D01*
X009366Y016698D02*
X008436Y016698D01*
X008407Y016857D02*
X009366Y016857D01*
X009514Y017015D02*
X008316Y017015D01*
X008353Y017174D02*
X011221Y017174D01*
X011221Y017332D02*
X010104Y017332D01*
X009997Y017225D02*
X010266Y017495D01*
X010266Y017876D01*
X009997Y018145D01*
X009616Y018145D01*
X009346Y017876D01*
X009346Y017495D01*
X009616Y017225D01*
X009997Y017225D01*
X010099Y017015D02*
X011221Y017015D01*
X011221Y016995D02*
X011491Y016725D01*
X011872Y016725D01*
X012141Y016995D01*
X012141Y017376D01*
X011872Y017645D01*
X011491Y017645D01*
X011221Y017376D01*
X011221Y016995D01*
X011359Y016857D02*
X010246Y016857D01*
X010246Y016698D02*
X012298Y016698D01*
X012140Y016540D02*
X010246Y016540D01*
X010124Y016381D02*
X010981Y016381D01*
X010823Y016223D02*
X008136Y016223D01*
X007932Y016223D02*
X007931Y016223D01*
X007931Y016381D02*
X007932Y016381D01*
X007931Y016540D02*
X007932Y016540D01*
X007727Y016223D02*
X004961Y016223D01*
X004961Y016381D02*
X007528Y016381D01*
X007448Y016540D02*
X004961Y016540D01*
X004961Y016698D02*
X007426Y016698D01*
X007456Y016857D02*
X006707Y016857D01*
X006723Y016873D02*
X006669Y016819D01*
X006608Y016775D01*
X006541Y016741D01*
X006469Y016717D01*
X006394Y016705D01*
X006076Y016705D01*
X006076Y017165D01*
X006036Y017165D01*
X005276Y017165D01*
X005276Y017148D01*
X005288Y017073D01*
X005312Y017001D01*
X005346Y016934D01*
X005390Y016873D01*
X005444Y016819D01*
X005505Y016775D01*
X005572Y016741D01*
X005644Y016717D01*
X005719Y016705D01*
X006036Y016705D01*
X006036Y017165D01*
X006036Y017205D01*
X005276Y017205D01*
X005276Y017223D01*
X005288Y017298D01*
X005312Y017370D01*
X005346Y017437D01*
X005390Y017498D01*
X005444Y017551D01*
X005505Y017596D01*
X005572Y017630D01*
X005644Y017654D01*
X005719Y017665D01*
X006036Y017665D01*
X006036Y017206D01*
X006076Y017206D01*
X006076Y017665D01*
X006394Y017665D01*
X006469Y017654D01*
X006541Y017630D01*
X006608Y017596D01*
X006669Y017551D01*
X006723Y017498D01*
X006767Y017437D01*
X006801Y017370D01*
X006825Y017298D01*
X006836Y017223D01*
X006836Y017205D01*
X006077Y017205D01*
X006077Y017165D01*
X006836Y017165D01*
X006836Y017148D01*
X006825Y017073D01*
X006801Y017001D01*
X006767Y016934D01*
X006723Y016873D01*
X006806Y017015D02*
X007547Y017015D01*
X007510Y017174D02*
X006077Y017174D01*
X006036Y017174D02*
X004825Y017174D01*
X004911Y017015D02*
X005307Y017015D01*
X005406Y016857D02*
X004961Y016857D01*
X004681Y016810D02*
X004556Y016935D01*
X004681Y016810D02*
X004681Y016185D01*
X004681Y015685D01*
X004681Y013685D01*
X005181Y013185D01*
X007681Y010685D01*
X010181Y010685D01*
X010681Y010185D01*
X010480Y009881D02*
X009882Y009881D01*
X010040Y009722D02*
X018611Y009722D01*
X018615Y009564D02*
X012213Y009564D01*
X012348Y009405D02*
X018680Y009405D01*
X018814Y009247D02*
X012401Y009247D01*
X012399Y009088D02*
X015962Y009088D01*
X015999Y009125D02*
X015741Y008868D01*
X015741Y008686D01*
X016181Y008686D01*
X016181Y009125D01*
X015999Y009125D01*
X016182Y009125D02*
X016182Y008686D01*
X016181Y008686D01*
X016181Y008685D01*
X015741Y008685D01*
X015741Y008503D01*
X015999Y008245D01*
X016181Y008245D01*
X016181Y008685D01*
X016182Y008685D01*
X016182Y008686D01*
X016621Y008686D01*
X016621Y008868D01*
X016364Y009125D01*
X016182Y009125D01*
X016181Y009088D02*
X016182Y009088D01*
X016181Y008930D02*
X016182Y008930D01*
X016181Y008771D02*
X016182Y008771D01*
X016182Y008685D02*
X016621Y008685D01*
X016621Y008503D01*
X016364Y008245D01*
X016182Y008245D01*
X016182Y008685D01*
X016181Y008613D02*
X016182Y008613D01*
X016181Y008454D02*
X016182Y008454D01*
X016181Y008295D02*
X016182Y008295D01*
X016414Y008295D02*
X018765Y008295D01*
X018827Y008137D02*
X016380Y008137D01*
X016372Y008145D02*
X015991Y008145D01*
X015721Y007876D01*
X015721Y007495D01*
X015991Y007225D01*
X016372Y007225D01*
X016641Y007495D01*
X016641Y007876D01*
X016372Y008145D01*
X016539Y007978D02*
X018686Y007978D01*
X018620Y007820D02*
X016641Y007820D01*
X016641Y007661D02*
X018611Y007661D01*
X018640Y007503D02*
X016641Y007503D01*
X016491Y007344D02*
X018716Y007344D01*
X018898Y007186D02*
X014206Y007186D01*
X014206Y007344D02*
X015872Y007344D01*
X015721Y007503D02*
X014206Y007503D01*
X014206Y007593D02*
X014089Y007710D01*
X013274Y007710D01*
X013156Y007593D01*
X013156Y006777D01*
X013274Y006660D01*
X013509Y006660D01*
X013488Y006653D01*
X013417Y006617D01*
X013352Y006571D01*
X013296Y006514D01*
X013249Y006450D01*
X013213Y006379D01*
X013189Y006304D01*
X013176Y006225D01*
X013176Y006186D01*
X013681Y006186D01*
X013681Y006185D01*
X013176Y006185D01*
X013176Y006146D01*
X013189Y006067D01*
X013213Y005991D01*
X013249Y005921D01*
X013296Y005856D01*
X013352Y005800D01*
X013417Y005753D01*
X013488Y005717D01*
X013563Y005693D01*
X013642Y005680D01*
X013681Y005680D01*
X013681Y006185D01*
X013682Y006185D01*
X013682Y006186D01*
X014186Y006186D01*
X014186Y006225D01*
X014174Y006304D01*
X014149Y006379D01*
X014113Y006450D01*
X014067Y006514D01*
X014010Y006571D01*
X013946Y006617D01*
X013875Y006653D01*
X013853Y006660D01*
X014089Y006660D01*
X014206Y006777D01*
X014206Y007593D01*
X014138Y007661D02*
X015721Y007661D01*
X015721Y007820D02*
X012226Y007820D01*
X012354Y007978D02*
X015824Y007978D01*
X015982Y008137D02*
X012401Y008137D01*
X012394Y008295D02*
X015949Y008295D01*
X015791Y008454D02*
X012323Y008454D01*
X012112Y008613D02*
X015741Y008613D01*
X015741Y008771D02*
X012143Y008771D01*
X012333Y008930D02*
X015803Y008930D01*
X016401Y009088D02*
X018778Y009088D01*
X018666Y008930D02*
X016559Y008930D01*
X016621Y008771D02*
X018611Y008771D01*
X018611Y008613D02*
X016621Y008613D01*
X016572Y008454D02*
X018660Y008454D01*
X019646Y007344D02*
X019666Y007344D01*
X019666Y007186D02*
X019464Y007186D01*
X019666Y007027D02*
X014206Y007027D01*
X014206Y006869D02*
X019666Y006869D01*
X019666Y006710D02*
X014139Y006710D01*
X014029Y006551D02*
X015897Y006551D01*
X015991Y006645D02*
X015721Y006376D01*
X015721Y005995D01*
X015991Y005725D01*
X016372Y005725D01*
X016641Y005995D01*
X016641Y006376D01*
X016372Y006645D01*
X015991Y006645D01*
X015738Y006393D02*
X014142Y006393D01*
X014185Y006234D02*
X015721Y006234D01*
X015721Y006076D02*
X014175Y006076D01*
X014174Y006067D02*
X014186Y006146D01*
X014186Y006185D01*
X013682Y006185D01*
X013682Y005680D01*
X013721Y005680D01*
X013800Y005693D01*
X013875Y005717D01*
X013946Y005753D01*
X014010Y005800D01*
X014067Y005856D01*
X014113Y005921D01*
X014149Y005991D01*
X014174Y006067D01*
X014111Y005917D02*
X015799Y005917D01*
X015957Y005759D02*
X013953Y005759D01*
X013682Y005759D02*
X013681Y005759D01*
X013681Y005917D02*
X013682Y005917D01*
X013681Y006076D02*
X013682Y006076D01*
X013409Y005759D02*
X012052Y005759D01*
X012044Y005756D02*
X012110Y005778D01*
X012172Y005809D01*
X012228Y005850D01*
X012277Y005899D01*
X012318Y005955D01*
X012349Y006016D01*
X012371Y006082D01*
X012381Y006151D01*
X012381Y006185D01*
X011682Y006185D01*
X011682Y006186D01*
X011681Y006186D01*
X011681Y006625D01*
X011387Y006625D01*
X011318Y006614D01*
X011252Y006593D01*
X011191Y006562D01*
X011135Y006521D01*
X011086Y006472D01*
X011045Y006416D01*
X011014Y006354D01*
X010992Y006288D01*
X010981Y006220D01*
X010981Y006186D01*
X011681Y006186D01*
X011681Y006185D01*
X010981Y006185D01*
X010981Y006151D01*
X010992Y006082D01*
X011014Y006016D01*
X011045Y005955D01*
X011086Y005899D01*
X011135Y005850D01*
X011191Y005809D01*
X011252Y005778D01*
X011318Y005756D01*
X011387Y005745D01*
X011681Y005745D01*
X011681Y006185D01*
X011682Y006185D01*
X011682Y005745D01*
X011976Y005745D01*
X012044Y005756D01*
X012033Y005645D02*
X012202Y005575D01*
X012331Y005446D01*
X012401Y005277D01*
X012401Y005094D01*
X012331Y004925D01*
X012202Y004795D01*
X012033Y004725D01*
X011330Y004725D01*
X011161Y004795D01*
X011031Y004925D01*
X010961Y005094D01*
X010961Y005277D01*
X011031Y005446D01*
X011161Y005575D01*
X011330Y005645D01*
X012033Y005645D01*
X012142Y005600D02*
X019666Y005600D01*
X019666Y005442D02*
X012333Y005442D01*
X012399Y005283D02*
X019666Y005283D01*
X019666Y005759D02*
X016405Y005759D01*
X016564Y005917D02*
X019666Y005917D01*
X019666Y006076D02*
X016641Y006076D01*
X016641Y006234D02*
X019666Y006234D01*
X019666Y006393D02*
X016624Y006393D01*
X016466Y006551D02*
X019666Y006551D01*
X018611Y005125D02*
X012401Y005125D01*
X012348Y004966D02*
X018611Y004966D01*
X018611Y004807D02*
X012214Y004807D01*
X012202Y004575D02*
X012033Y004645D01*
X011330Y004645D01*
X011161Y004575D01*
X011031Y004446D01*
X010961Y004277D01*
X010961Y004094D01*
X011031Y003925D01*
X011161Y003795D01*
X011330Y003725D01*
X012033Y003725D01*
X012202Y003795D01*
X012331Y003925D01*
X012401Y004094D01*
X012401Y004277D01*
X012331Y004446D01*
X012202Y004575D01*
X012287Y004490D02*
X018611Y004490D01*
X018611Y004332D02*
X012379Y004332D01*
X012401Y004173D02*
X018671Y004173D01*
X018705Y004015D02*
X012369Y004015D01*
X012263Y003856D02*
X018635Y003856D01*
X018611Y003698D02*
X006820Y003698D01*
X006978Y003539D02*
X008125Y003539D01*
X008161Y003575D02*
X008031Y003446D01*
X007961Y003277D01*
X007961Y003094D01*
X008031Y002925D01*
X008161Y002795D01*
X008330Y002725D01*
X009033Y002725D01*
X009202Y002795D01*
X009331Y002925D01*
X009401Y003094D01*
X009401Y003277D01*
X009331Y003446D01*
X009202Y003575D01*
X009033Y003645D01*
X008330Y003645D01*
X008161Y003575D01*
X008161Y003795D02*
X008330Y003725D01*
X009033Y003725D01*
X009202Y003795D01*
X009331Y003925D01*
X009401Y004094D01*
X009401Y004277D01*
X009331Y004446D01*
X009202Y004575D01*
X009033Y004645D01*
X008330Y004645D01*
X008161Y004575D01*
X008031Y004446D01*
X007961Y004277D01*
X007961Y004094D01*
X008031Y003925D01*
X008161Y003795D01*
X008100Y003856D02*
X003836Y003856D01*
X003836Y003698D02*
X005322Y003698D01*
X005163Y003539D02*
X003836Y003539D01*
X003836Y003381D02*
X005116Y003381D01*
X005116Y003222D02*
X003836Y003222D01*
X003836Y003064D02*
X005181Y003064D01*
X005340Y002905D02*
X003836Y002905D01*
X003836Y002746D02*
X005597Y002746D01*
X005557Y002905D02*
X005556Y002905D01*
X005556Y003064D02*
X005557Y003064D01*
X005556Y003222D02*
X005557Y003222D01*
X005557Y003311D02*
X005996Y003311D01*
X005996Y003493D01*
X005739Y003750D01*
X005557Y003750D01*
X005557Y003311D01*
X005556Y003381D02*
X005557Y003381D01*
X005556Y003539D02*
X005557Y003539D01*
X005556Y003698D02*
X005557Y003698D01*
X005791Y003698D02*
X006293Y003698D01*
X006135Y003539D02*
X005950Y003539D01*
X005996Y003381D02*
X006096Y003381D01*
X006072Y003222D02*
X005996Y003222D01*
X006388Y002746D02*
X008279Y002746D01*
X008330Y002645D02*
X008161Y002575D01*
X008031Y002446D01*
X007961Y002277D01*
X007961Y002094D01*
X008031Y001925D01*
X008161Y001795D01*
X007126Y001795D01*
X007126Y001637D02*
X018611Y001637D01*
X018611Y001795D02*
X012201Y001795D01*
X012202Y001795D02*
X012331Y001925D01*
X012401Y002094D01*
X012401Y002277D01*
X012331Y002446D01*
X012202Y002575D01*
X012033Y002645D01*
X011330Y002645D01*
X011161Y002575D01*
X011031Y002446D01*
X010961Y002277D01*
X010961Y002094D01*
X011031Y001925D01*
X011161Y001795D01*
X009201Y001795D01*
X009202Y001795D02*
X009331Y001925D01*
X009401Y002094D01*
X009401Y002277D01*
X009331Y002446D01*
X009202Y002575D01*
X009033Y002645D01*
X008330Y002645D01*
X008191Y002588D02*
X006230Y002588D01*
X006071Y002429D02*
X008025Y002429D01*
X007961Y002271D02*
X007119Y002271D01*
X007126Y002112D02*
X007961Y002112D01*
X008019Y001954D02*
X007126Y001954D01*
X007126Y001478D02*
X018650Y001478D01*
X018741Y001320D02*
X007088Y001320D01*
X006024Y001320D02*
X005861Y001320D01*
X005556Y001810D02*
X005556Y002310D01*
X006556Y003310D01*
X007016Y003381D02*
X008004Y003381D01*
X007961Y003222D02*
X007016Y003222D01*
X006960Y003064D02*
X007974Y003064D01*
X008051Y002905D02*
X006802Y002905D01*
X005994Y002271D02*
X005913Y002271D01*
X005556Y001810D02*
X004681Y000935D01*
X001556Y000935D01*
X000806Y001685D01*
X001186Y002112D02*
X002065Y002112D01*
X001999Y001954D02*
X001312Y001954D01*
X001376Y001795D02*
X001986Y001795D01*
X002011Y001637D02*
X001376Y001637D01*
X001410Y001478D02*
X002083Y001478D01*
X002252Y001320D02*
X001568Y001320D01*
X001170Y002271D02*
X002211Y002271D01*
X002276Y002429D02*
X001293Y002429D01*
X001348Y002588D02*
X002276Y002588D01*
X002276Y002746D02*
X001354Y002746D01*
X001312Y002905D02*
X002276Y002905D01*
X002276Y003064D02*
X001206Y003064D01*
X001149Y003222D02*
X002276Y003222D01*
X002276Y003381D02*
X001297Y003381D01*
X001363Y003539D02*
X002276Y003539D01*
X002276Y003698D02*
X001376Y003698D01*
X001353Y003856D02*
X002276Y003856D01*
X002276Y004015D02*
X001283Y004015D01*
X001317Y004173D02*
X002276Y004173D01*
X002276Y004332D02*
X001376Y004332D01*
X001376Y004490D02*
X002276Y004490D01*
X002276Y004649D02*
X001376Y004649D01*
X001376Y004807D02*
X002276Y004807D01*
X002276Y004966D02*
X001376Y004966D01*
X001376Y005125D02*
X002276Y005125D01*
X002276Y005283D02*
X000381Y005283D01*
X000381Y005442D02*
X002276Y005442D01*
X002276Y005600D02*
X000381Y005600D01*
X000381Y005759D02*
X002276Y005759D01*
X002276Y005917D02*
X000381Y005917D01*
X000381Y006076D02*
X002276Y006076D01*
X002276Y006234D02*
X001162Y006234D01*
X001302Y006393D02*
X002276Y006393D01*
X002276Y006551D02*
X001368Y006551D01*
X001376Y006710D02*
X002276Y006710D01*
X002276Y006869D02*
X001347Y006869D01*
X001271Y007027D02*
X002276Y007027D01*
X002276Y007186D02*
X001089Y007186D01*
X001271Y007344D02*
X002276Y007344D01*
X002276Y007503D02*
X001348Y007503D01*
X001376Y007661D02*
X002276Y007661D01*
X002276Y007820D02*
X001368Y007820D01*
X001302Y007978D02*
X002276Y007978D01*
X002276Y008137D02*
X001161Y008137D01*
X001223Y008295D02*
X002276Y008295D01*
X002276Y008454D02*
X001328Y008454D01*
X001376Y008613D02*
X002276Y008613D01*
X002276Y008771D02*
X001376Y008771D01*
X001322Y008930D02*
X002276Y008930D01*
X002276Y009088D02*
X001210Y009088D01*
X001376Y009247D02*
X002276Y009247D01*
X002276Y009405D02*
X001376Y009405D01*
X001376Y009564D02*
X002219Y009564D01*
X002198Y009722D02*
X001376Y009722D01*
X001376Y009881D02*
X002249Y009881D01*
X002475Y010039D02*
X001376Y010039D01*
X001317Y010198D02*
X003276Y010198D01*
X003276Y010356D02*
X000381Y010356D01*
X000381Y010515D02*
X003276Y010515D01*
X003276Y010674D02*
X000381Y010674D01*
X000381Y010832D02*
X003276Y010832D01*
X003276Y010991D02*
X000921Y010991D01*
X000692Y010991D02*
X000381Y010991D01*
X000381Y011149D02*
X000411Y011149D01*
X001201Y011149D02*
X003276Y011149D01*
X003276Y011308D02*
X001319Y011308D01*
X001376Y011466D02*
X003207Y011466D01*
X003198Y011625D02*
X001376Y011625D01*
X001331Y011783D02*
X003273Y011783D01*
X003556Y011560D02*
X003556Y001810D01*
X003211Y002271D02*
X002902Y002271D01*
X002836Y002429D02*
X003276Y002429D01*
X003276Y002588D02*
X002836Y002588D01*
X002836Y002746D02*
X003276Y002746D01*
X003276Y002905D02*
X002836Y002905D01*
X002836Y003064D02*
X003276Y003064D01*
X003276Y003222D02*
X002836Y003222D01*
X002836Y003381D02*
X003276Y003381D01*
X003276Y003539D02*
X002836Y003539D01*
X002836Y003698D02*
X003276Y003698D01*
X003276Y003856D02*
X002836Y003856D01*
X002836Y004015D02*
X003276Y004015D01*
X003276Y004173D02*
X002836Y004173D01*
X002836Y004332D02*
X003276Y004332D01*
X003276Y004490D02*
X002836Y004490D01*
X002836Y004649D02*
X003276Y004649D01*
X003276Y004807D02*
X002836Y004807D01*
X002836Y004966D02*
X003276Y004966D01*
X003276Y005125D02*
X002836Y005125D01*
X002836Y005283D02*
X003276Y005283D01*
X003276Y005442D02*
X002836Y005442D01*
X002836Y005600D02*
X003276Y005600D01*
X003276Y005759D02*
X002836Y005759D01*
X002836Y005917D02*
X003276Y005917D01*
X003276Y006076D02*
X002836Y006076D01*
X002836Y006234D02*
X003276Y006234D01*
X003276Y006393D02*
X002836Y006393D01*
X002836Y006551D02*
X003276Y006551D01*
X003276Y006710D02*
X002836Y006710D01*
X002836Y006869D02*
X003276Y006869D01*
X003276Y007027D02*
X002836Y007027D01*
X002836Y007186D02*
X003276Y007186D01*
X003276Y007344D02*
X002836Y007344D01*
X002836Y007503D02*
X003276Y007503D01*
X003276Y007661D02*
X002836Y007661D01*
X002836Y007820D02*
X003276Y007820D01*
X003276Y007978D02*
X002836Y007978D01*
X002836Y008137D02*
X003276Y008137D01*
X003276Y008295D02*
X002836Y008295D01*
X002836Y008454D02*
X003276Y008454D01*
X003276Y008613D02*
X002836Y008613D01*
X002836Y008771D02*
X003276Y008771D01*
X003276Y008930D02*
X002836Y008930D01*
X002836Y009088D02*
X003276Y009088D01*
X003276Y009247D02*
X002836Y009247D01*
X002836Y009405D02*
X003276Y009405D01*
X003276Y009564D02*
X002894Y009564D01*
X002915Y009722D02*
X003276Y009722D01*
X003276Y009881D02*
X002863Y009881D01*
X002638Y010039D02*
X003276Y010039D01*
X003836Y010039D02*
X006000Y010039D01*
X006152Y009881D02*
X003836Y009881D01*
X003836Y009722D02*
X006303Y009722D01*
X006455Y009564D02*
X003836Y009564D01*
X003836Y009405D02*
X006606Y009405D01*
X006758Y009247D02*
X003836Y009247D01*
X003836Y009088D02*
X006909Y009088D01*
X007061Y008930D02*
X003836Y008930D01*
X003836Y008771D02*
X007212Y008771D01*
X007364Y008613D02*
X003836Y008613D01*
X003836Y008454D02*
X007515Y008454D01*
X007681Y008685D02*
X009681Y008685D01*
X010181Y008185D01*
X011681Y008185D01*
X011251Y008613D02*
X010150Y008613D01*
X009992Y008771D02*
X011220Y008771D01*
X011681Y009185D02*
X010181Y009185D01*
X009681Y009685D01*
X007681Y009685D01*
X004181Y013185D01*
X004181Y013685D01*
X004181Y015685D01*
X004181Y016435D01*
X003411Y017205D01*
X002666Y017205D01*
X003028Y017491D02*
X005385Y017491D01*
X005299Y017332D02*
X003680Y017332D01*
X003839Y017174D02*
X004288Y017174D01*
X004202Y017015D02*
X003997Y017015D01*
X004156Y016857D02*
X004201Y016857D01*
X004961Y016064D02*
X010664Y016064D01*
X010506Y015906D02*
X004961Y015906D01*
X006036Y016857D02*
X006076Y016857D01*
X006076Y017015D02*
X006036Y017015D01*
X006036Y017332D02*
X006076Y017332D01*
X006076Y017491D02*
X006036Y017491D01*
X006036Y017649D02*
X006076Y017649D01*
X006456Y017685D02*
X005657Y017685D01*
X005473Y017761D01*
X005333Y017902D01*
X005256Y018086D01*
X005256Y018285D01*
X005333Y018469D01*
X005473Y018609D01*
X005657Y018685D01*
X006456Y018685D01*
X006640Y018609D01*
X006780Y018469D01*
X006856Y018285D01*
X006856Y018086D01*
X006780Y017902D01*
X006640Y017761D01*
X006456Y017685D01*
X006481Y017649D02*
X007406Y017649D01*
X007406Y017491D02*
X006728Y017491D01*
X006813Y017332D02*
X007406Y017332D01*
X007406Y017808D02*
X006686Y017808D01*
X006807Y017967D02*
X007406Y017967D01*
X007438Y018125D02*
X006856Y018125D01*
X006856Y018284D02*
X011221Y018284D01*
X011221Y018376D02*
X011221Y017995D01*
X011491Y017725D01*
X011872Y017725D01*
X012141Y017995D01*
X012141Y018376D01*
X011872Y018645D01*
X011491Y018645D01*
X011221Y018376D01*
X011288Y018442D02*
X006791Y018442D01*
X006648Y018601D02*
X011446Y018601D01*
X011499Y018745D02*
X011241Y019003D01*
X011241Y019185D01*
X011681Y019185D01*
X011681Y019186D01*
X011681Y019625D01*
X011499Y019625D01*
X011241Y019368D01*
X011241Y019186D01*
X011681Y019186D01*
X011682Y019186D01*
X011682Y019625D01*
X011864Y019625D01*
X012121Y019368D01*
X012121Y019186D01*
X011682Y019186D01*
X011682Y019185D01*
X012121Y019185D01*
X012121Y019003D01*
X011864Y018745D01*
X011682Y018745D01*
X011682Y019185D01*
X011681Y019185D01*
X011681Y018745D01*
X011499Y018745D01*
X011485Y018759D02*
X008878Y018759D01*
X008864Y018745D02*
X009121Y019003D01*
X009121Y019185D01*
X008682Y019185D01*
X008682Y019186D01*
X008681Y019186D01*
X008681Y019625D01*
X008499Y019625D01*
X008241Y019368D01*
X008241Y019186D01*
X008681Y019186D01*
X008681Y019185D01*
X008241Y019185D01*
X008241Y019003D01*
X008499Y018745D01*
X008681Y018745D01*
X008681Y019185D01*
X008682Y019185D01*
X008682Y018745D01*
X008864Y018745D01*
X008682Y018759D02*
X008681Y018759D01*
X008681Y018918D02*
X008682Y018918D01*
X008681Y019076D02*
X008682Y019076D01*
X008682Y019186D02*
X009121Y019186D01*
X009121Y019368D01*
X008864Y019625D01*
X008682Y019625D01*
X008682Y019186D01*
X008681Y019235D02*
X008682Y019235D01*
X008681Y019393D02*
X008682Y019393D01*
X008681Y019552D02*
X008682Y019552D01*
X008937Y019552D02*
X011426Y019552D01*
X011267Y019393D02*
X009095Y019393D01*
X009121Y019235D02*
X011241Y019235D01*
X011241Y019076D02*
X009121Y019076D01*
X009036Y018918D02*
X011327Y018918D01*
X011681Y018918D02*
X011682Y018918D01*
X011681Y019076D02*
X011682Y019076D01*
X011681Y019235D02*
X011682Y019235D01*
X011681Y019393D02*
X011682Y019393D01*
X011681Y019552D02*
X011682Y019552D01*
X011937Y019552D02*
X013131Y019552D01*
X013131Y019393D02*
X012095Y019393D01*
X012121Y019235D02*
X013150Y019235D01*
X013131Y019711D02*
X000381Y019711D01*
X000381Y019869D02*
X013131Y019869D01*
X013131Y020028D02*
X000381Y020028D01*
X000381Y019552D02*
X005416Y019552D01*
X005473Y019609D02*
X005333Y019469D01*
X005256Y019285D01*
X005256Y019086D01*
X005333Y018902D01*
X005473Y018761D01*
X005657Y018685D01*
X006456Y018685D01*
X006640Y018761D01*
X006780Y018902D01*
X006856Y019086D01*
X006856Y019285D01*
X006780Y019469D01*
X006640Y019609D01*
X006456Y019685D01*
X005657Y019685D01*
X005473Y019609D01*
X005301Y019393D02*
X004022Y019393D01*
X003895Y019446D02*
X003592Y019446D01*
X003312Y019330D01*
X003098Y019116D01*
X002982Y018837D01*
X002982Y018534D01*
X003098Y018254D01*
X003312Y018040D01*
X003592Y017924D01*
X003895Y017924D01*
X004174Y018040D01*
X004389Y018254D01*
X004504Y018534D01*
X004504Y018837D01*
X004389Y019116D01*
X004174Y019330D01*
X003895Y019446D01*
X004270Y019235D02*
X005256Y019235D01*
X005260Y019076D02*
X004405Y019076D01*
X004471Y018918D02*
X005326Y018918D01*
X005478Y018759D02*
X004504Y018759D01*
X004504Y018601D02*
X005465Y018601D01*
X005322Y018442D02*
X004466Y018442D01*
X004401Y018284D02*
X005256Y018284D01*
X005256Y018125D02*
X004259Y018125D01*
X003997Y017967D02*
X005306Y017967D01*
X005427Y017808D02*
X000381Y017808D01*
X000381Y017649D02*
X001853Y017649D01*
X002100Y017649D02*
X002543Y017649D01*
X002790Y017649D02*
X005632Y017649D01*
X006634Y018759D02*
X007457Y018759D01*
X007491Y018725D02*
X007872Y018725D01*
X008141Y018995D01*
X008141Y019376D01*
X007872Y019645D01*
X007491Y019645D01*
X007221Y019376D01*
X007221Y018995D01*
X007491Y018725D01*
X007298Y018918D02*
X006787Y018918D01*
X006852Y019076D02*
X007221Y019076D01*
X007221Y019235D02*
X006856Y019235D01*
X006811Y019393D02*
X007239Y019393D01*
X007398Y019552D02*
X006697Y019552D01*
X007906Y018759D02*
X008485Y018759D01*
X008327Y018918D02*
X008064Y018918D01*
X008141Y019076D02*
X008241Y019076D01*
X008241Y019235D02*
X008141Y019235D01*
X008124Y019393D02*
X008267Y019393D01*
X008426Y019552D02*
X007965Y019552D01*
X008424Y018125D02*
X009596Y018125D01*
X009437Y017967D02*
X008456Y017967D01*
X008456Y017808D02*
X009346Y017808D01*
X009346Y017649D02*
X008456Y017649D01*
X008456Y017491D02*
X009350Y017491D01*
X009509Y017332D02*
X008456Y017332D01*
X009806Y017015D02*
X009807Y017015D01*
X009806Y016857D02*
X009807Y016857D01*
X009806Y016698D02*
X009807Y016698D01*
X009806Y016540D02*
X009807Y016540D01*
X009806Y016381D02*
X009807Y016381D01*
X010263Y017491D02*
X011336Y017491D01*
X011408Y017808D02*
X010266Y017808D01*
X010266Y017649D02*
X013250Y017649D01*
X013091Y017491D02*
X012026Y017491D01*
X012141Y017332D02*
X012933Y017332D01*
X012774Y017174D02*
X012141Y017174D01*
X012141Y017015D02*
X012615Y017015D01*
X012457Y016857D02*
X012003Y016857D01*
X012615Y016223D02*
X015823Y016223D01*
X015981Y016381D02*
X012773Y016381D01*
X012932Y016540D02*
X016140Y016540D01*
X016298Y016698D02*
X013090Y016698D01*
X013249Y016857D02*
X014359Y016857D01*
X014491Y016725D02*
X014221Y016995D01*
X014221Y017376D01*
X014491Y017645D01*
X014872Y017645D01*
X015141Y017376D01*
X015141Y016995D01*
X014872Y016725D01*
X014491Y016725D01*
X014221Y017015D02*
X013407Y017015D01*
X013566Y017174D02*
X014221Y017174D01*
X014221Y017332D02*
X013724Y017332D01*
X013883Y017491D02*
X014336Y017491D01*
X014041Y017649D02*
X016221Y017649D01*
X016225Y017491D02*
X015026Y017491D01*
X015141Y017332D02*
X016384Y017332D01*
X016615Y017015D02*
X015141Y017015D01*
X015141Y017174D02*
X016774Y017174D01*
X016457Y016857D02*
X015003Y016857D01*
X015664Y016064D02*
X012456Y016064D01*
X012237Y015906D02*
X015506Y015906D01*
X015347Y015747D02*
X011139Y015747D01*
X011193Y015588D02*
X010980Y015588D01*
X011031Y015446D02*
X010961Y015277D01*
X010961Y015094D01*
X011031Y014925D01*
X011161Y014795D01*
X011330Y014725D01*
X012033Y014725D01*
X012202Y014795D01*
X012331Y014925D01*
X012401Y015094D01*
X012401Y015277D01*
X012331Y015446D01*
X012202Y015575D01*
X012033Y015645D01*
X011330Y015645D01*
X011161Y015575D01*
X011031Y015446D01*
X011025Y015430D02*
X010822Y015430D01*
X010961Y015271D02*
X010663Y015271D01*
X010650Y015113D02*
X010961Y015113D01*
X011019Y014954D02*
X010808Y014954D01*
X010939Y014796D02*
X011161Y014796D01*
X011252Y014593D02*
X011191Y014562D01*
X011135Y014521D01*
X011086Y014472D01*
X011045Y014416D01*
X011014Y014354D01*
X010992Y014288D01*
X010981Y014220D01*
X010981Y014186D01*
X011681Y014186D01*
X011681Y014625D01*
X011387Y014625D01*
X011318Y014614D01*
X011252Y014593D01*
X011092Y014479D02*
X010961Y014479D01*
X010961Y014637D02*
X014901Y014637D01*
X014901Y014479D02*
X014010Y014479D01*
X014121Y014368D02*
X013864Y014625D01*
X013682Y014625D01*
X013682Y014186D01*
X013681Y014186D01*
X013681Y014625D01*
X013499Y014625D01*
X013241Y014368D01*
X013241Y014186D01*
X013681Y014186D01*
X013681Y014185D01*
X013241Y014185D01*
X013241Y014003D01*
X013499Y013745D01*
X013681Y013745D01*
X013681Y014185D01*
X013682Y014185D01*
X013682Y014186D01*
X014121Y014186D01*
X014121Y014368D01*
X014121Y014320D02*
X014901Y014320D01*
X014901Y014162D02*
X014121Y014162D01*
X014121Y014185D02*
X013682Y014185D01*
X013682Y013745D01*
X013864Y013745D01*
X014121Y014003D01*
X014901Y014003D01*
X014901Y013844D02*
X013963Y013844D01*
X013991Y013645D02*
X013721Y013376D01*
X013721Y012995D01*
X013991Y012725D01*
X014372Y012725D01*
X014641Y012995D01*
X014641Y013376D01*
X014372Y013645D01*
X013991Y013645D01*
X013873Y013527D02*
X012250Y013527D01*
X012202Y013575D02*
X012331Y013446D01*
X012401Y013277D01*
X012401Y013094D01*
X012331Y012925D01*
X012202Y012795D01*
X012033Y012725D01*
X011330Y012725D01*
X011161Y012795D01*
X011031Y012925D01*
X010961Y013094D01*
X010961Y013277D01*
X011031Y013446D01*
X011161Y013575D01*
X011330Y013645D01*
X012033Y013645D01*
X012202Y013575D01*
X012110Y013778D02*
X012044Y013756D01*
X011976Y013745D01*
X011682Y013745D01*
X011682Y014185D01*
X011682Y014186D01*
X011681Y014186D01*
X011681Y014185D01*
X010981Y014185D01*
X010981Y014151D01*
X010992Y014082D01*
X011014Y014016D01*
X011045Y013955D01*
X011086Y013899D01*
X011135Y013850D01*
X011191Y013809D01*
X011252Y013778D01*
X011318Y013756D01*
X011387Y013745D01*
X011681Y013745D01*
X011681Y014185D01*
X011682Y014185D01*
X012381Y014185D01*
X012381Y014151D01*
X012371Y014082D01*
X012349Y014016D01*
X012318Y013955D01*
X012277Y013899D01*
X012228Y013850D01*
X012172Y013809D01*
X012110Y013778D01*
X012221Y013844D02*
X013400Y013844D01*
X013242Y014003D02*
X012342Y014003D01*
X012381Y014162D02*
X013241Y014162D01*
X013241Y014320D02*
X012360Y014320D01*
X012371Y014288D02*
X012349Y014354D01*
X012318Y014416D01*
X012277Y014472D01*
X012228Y014521D01*
X012172Y014562D01*
X012110Y014593D01*
X012044Y014614D01*
X011976Y014625D01*
X011682Y014625D01*
X011682Y014186D01*
X012381Y014186D01*
X012381Y014220D01*
X012371Y014288D01*
X012270Y014479D02*
X013352Y014479D01*
X013491Y014725D02*
X013872Y014725D01*
X014141Y014995D01*
X014141Y015376D01*
X013872Y015645D01*
X013491Y015645D01*
X013221Y015376D01*
X013221Y014995D01*
X013491Y014725D01*
X013421Y014796D02*
X012202Y014796D01*
X012344Y014954D02*
X013262Y014954D01*
X013221Y015113D02*
X012401Y015113D01*
X012401Y015271D02*
X013221Y015271D01*
X013275Y015430D02*
X012338Y015430D01*
X012170Y015588D02*
X013434Y015588D01*
X013929Y015588D02*
X015189Y015588D01*
X015030Y015430D02*
X014087Y015430D01*
X014141Y015271D02*
X014914Y015271D01*
X014901Y015113D02*
X014141Y015113D01*
X014101Y014954D02*
X014901Y014954D01*
X014901Y014796D02*
X013942Y014796D01*
X013682Y014479D02*
X013681Y014479D01*
X013681Y014320D02*
X013682Y014320D01*
X013681Y014162D02*
X013682Y014162D01*
X013681Y014003D02*
X013682Y014003D01*
X013681Y013844D02*
X013682Y013844D01*
X014121Y014003D02*
X014121Y014185D01*
X014490Y013527D02*
X014901Y013527D01*
X014901Y013369D02*
X014641Y013369D01*
X014641Y013210D02*
X014901Y013210D01*
X014901Y013052D02*
X014641Y013052D01*
X014540Y012893D02*
X014901Y012893D01*
X014901Y012735D02*
X014381Y012735D01*
X013982Y012735D02*
X012055Y012735D01*
X012033Y012645D02*
X012202Y012575D01*
X012331Y012446D01*
X012401Y012277D01*
X012401Y012094D01*
X012331Y011925D01*
X012202Y011795D01*
X012033Y011725D01*
X011330Y011725D01*
X011161Y011795D01*
X011031Y011925D01*
X010961Y012094D01*
X010961Y012277D01*
X011031Y012446D01*
X011161Y012575D01*
X011330Y012645D01*
X012033Y012645D01*
X012200Y012576D02*
X014901Y012576D01*
X014901Y012418D02*
X012343Y012418D01*
X012401Y012259D02*
X014901Y012259D01*
X014901Y012100D02*
X012401Y012100D01*
X012338Y011942D02*
X014901Y011942D01*
X014901Y011783D02*
X012173Y011783D01*
X012082Y011625D02*
X014901Y011625D01*
X014901Y011466D02*
X012311Y011466D01*
X012331Y011446D02*
X012202Y011575D01*
X012033Y011645D01*
X011330Y011645D01*
X011161Y011575D01*
X011031Y011446D01*
X010961Y011277D01*
X010961Y011094D01*
X011031Y010925D01*
X011161Y010795D01*
X011330Y010725D01*
X012033Y010725D01*
X012202Y010795D01*
X012331Y010925D01*
X012401Y011094D01*
X012401Y011277D01*
X012331Y011446D01*
X012389Y011308D02*
X014844Y011308D01*
X014823Y011149D02*
X012401Y011149D01*
X012359Y010991D02*
X014874Y010991D01*
X015098Y010832D02*
X012239Y010832D01*
X012262Y010515D02*
X013861Y010515D01*
X013991Y010645D02*
X013721Y010376D01*
X013721Y009995D01*
X013991Y009725D01*
X014372Y009725D01*
X014552Y009905D01*
X015626Y009905D01*
X015737Y009905D01*
X015840Y009948D01*
X016340Y010448D01*
X016419Y010527D01*
X016461Y010630D01*
X016461Y011815D01*
X016641Y011995D01*
X016641Y012376D01*
X016372Y012645D01*
X015991Y012645D01*
X015721Y012376D01*
X015721Y011995D01*
X015901Y011815D01*
X015901Y010801D01*
X015565Y010465D01*
X014552Y010465D01*
X014372Y010645D01*
X013991Y010645D01*
X013721Y010356D02*
X012368Y010356D01*
X012401Y010198D02*
X013721Y010198D01*
X013721Y010039D02*
X012379Y010039D01*
X012287Y009881D02*
X013835Y009881D01*
X014181Y010185D02*
X015681Y010185D01*
X016181Y010685D01*
X016181Y012185D01*
X015721Y012259D02*
X015461Y012259D01*
X015461Y012100D02*
X015721Y012100D01*
X015774Y011942D02*
X015461Y011942D01*
X015461Y011783D02*
X015901Y011783D01*
X015901Y011625D02*
X015461Y011625D01*
X015461Y011466D02*
X015901Y011466D01*
X015901Y011308D02*
X015519Y011308D01*
X015540Y011149D02*
X015901Y011149D01*
X015901Y010991D02*
X015489Y010991D01*
X015774Y010674D02*
X010589Y010674D01*
X010431Y010832D02*
X011124Y010832D01*
X011004Y010991D02*
X009359Y010991D01*
X009401Y011149D02*
X010961Y011149D01*
X010974Y011308D02*
X009389Y011308D01*
X009311Y011466D02*
X009894Y011466D01*
X009823Y011625D02*
X009082Y011625D01*
X008280Y011625D02*
X007138Y011625D01*
X006979Y011783D02*
X008190Y011783D01*
X008024Y011942D02*
X006821Y011942D01*
X006662Y012100D02*
X007961Y012100D01*
X007961Y012259D02*
X006504Y012259D01*
X006345Y012418D02*
X008020Y012418D01*
X008163Y012576D02*
X006187Y012576D01*
X006028Y012735D02*
X008307Y012735D01*
X008063Y012893D02*
X005869Y012893D01*
X005711Y013052D02*
X007979Y013052D01*
X007961Y013210D02*
X005552Y013210D01*
X005394Y013369D02*
X008000Y013369D01*
X008113Y013527D02*
X005235Y013527D01*
X003879Y012259D02*
X001299Y012259D01*
X001364Y012418D02*
X003728Y012418D01*
X003576Y012576D02*
X001376Y012576D01*
X001351Y012735D02*
X003425Y012735D01*
X003273Y012893D02*
X001280Y012893D01*
X001110Y013052D02*
X003122Y013052D01*
X002970Y013210D02*
X001262Y013210D01*
X001344Y013369D02*
X002819Y013369D01*
X002667Y013527D02*
X001376Y013527D01*
X001371Y013686D02*
X002516Y013686D01*
X002364Y013844D02*
X001306Y013844D01*
X001272Y014003D02*
X002213Y014003D01*
X002064Y014162D02*
X001376Y014162D01*
X001376Y014320D02*
X002026Y014320D01*
X002026Y014479D02*
X001376Y014479D01*
X001376Y014637D02*
X002026Y014637D01*
X002026Y014796D02*
X001376Y014796D01*
X001376Y014954D02*
X002026Y014954D01*
X002026Y015113D02*
X001277Y015113D01*
X002026Y015271D02*
X000381Y015271D01*
X000381Y015430D02*
X002026Y015430D01*
X002026Y015588D02*
X000381Y015588D01*
X000381Y015747D02*
X002026Y015747D01*
X002026Y015906D02*
X000381Y015906D01*
X000381Y016064D02*
X002026Y016064D01*
X002022Y016223D02*
X001851Y016223D01*
X001607Y016223D02*
X001606Y016223D01*
X001606Y016381D02*
X001607Y016381D01*
X001606Y016540D02*
X001607Y016540D01*
X001263Y016857D02*
X000381Y016857D01*
X000381Y017015D02*
X001525Y017015D01*
X001519Y017174D02*
X000381Y017174D01*
X000381Y017332D02*
X001534Y017332D01*
X001615Y017491D02*
X000381Y017491D01*
X000381Y017967D02*
X000616Y017967D01*
X001123Y017967D02*
X003490Y017967D01*
X003227Y018125D02*
X001385Y018125D01*
X001527Y018284D02*
X003086Y018284D01*
X003020Y018442D02*
X001592Y018442D01*
X001630Y018601D02*
X002982Y018601D01*
X002982Y018759D02*
X001630Y018759D01*
X001597Y018918D02*
X003016Y018918D01*
X003082Y019076D02*
X001531Y019076D01*
X001396Y019235D02*
X003217Y019235D01*
X003464Y019393D02*
X001148Y019393D01*
X000590Y019393D02*
X000381Y019393D01*
X000381Y016698D02*
X001183Y016698D01*
X001171Y016540D02*
X000381Y016540D01*
X000381Y016381D02*
X001219Y016381D01*
X001361Y016223D02*
X000381Y016223D01*
X002306Y016585D02*
X002306Y014310D01*
X007681Y008685D01*
X007995Y008295D02*
X003836Y008295D01*
X003836Y008137D02*
X005611Y008137D01*
X005611Y008138D02*
X005611Y007232D01*
X005729Y007115D01*
X005838Y007115D01*
X005823Y007105D01*
X005762Y007044D01*
X005711Y006974D01*
X005672Y006896D01*
X005645Y006814D01*
X005631Y006729D01*
X005631Y006705D01*
X006161Y006705D01*
X006161Y006665D01*
X005631Y006665D01*
X005631Y006642D01*
X005645Y006557D01*
X005672Y006474D01*
X005711Y006397D01*
X005762Y006327D01*
X005823Y006266D01*
X005893Y006215D01*
X005928Y006197D01*
X005859Y006169D01*
X005698Y006008D01*
X005611Y005799D01*
X005611Y005572D01*
X005698Y005362D01*
X005859Y005202D01*
X006068Y005115D01*
X006295Y005115D01*
X006504Y005202D01*
X006665Y005362D01*
X006751Y005572D01*
X006751Y005799D01*
X006665Y006008D01*
X006504Y006169D01*
X006435Y006197D01*
X006470Y006215D01*
X006540Y006266D01*
X006601Y006327D01*
X006652Y006397D01*
X006691Y006474D01*
X006718Y006557D01*
X006731Y006642D01*
X006731Y006665D01*
X006202Y006665D01*
X006202Y006705D01*
X006731Y006705D01*
X006731Y006729D01*
X006718Y006814D01*
X006691Y006896D01*
X006652Y006974D01*
X006601Y007044D01*
X006540Y007105D01*
X006525Y007115D01*
X006634Y007115D01*
X006751Y007232D01*
X006751Y008138D01*
X006634Y008255D01*
X005729Y008255D01*
X005611Y008138D01*
X005611Y007978D02*
X003836Y007978D01*
X003836Y007820D02*
X005611Y007820D01*
X005611Y007661D02*
X003836Y007661D01*
X003836Y007503D02*
X005611Y007503D01*
X005611Y007344D02*
X003836Y007344D01*
X003836Y007186D02*
X005658Y007186D01*
X005750Y007027D02*
X003836Y007027D01*
X003836Y006869D02*
X005663Y006869D01*
X005631Y006710D02*
X003836Y006710D01*
X003836Y006551D02*
X005647Y006551D01*
X005714Y006393D02*
X003836Y006393D01*
X003836Y006234D02*
X005866Y006234D01*
X005766Y006076D02*
X003836Y006076D01*
X003836Y005917D02*
X005661Y005917D01*
X005611Y005759D02*
X003836Y005759D01*
X003836Y005600D02*
X005611Y005600D01*
X005665Y005442D02*
X003836Y005442D01*
X003836Y005283D02*
X005778Y005283D01*
X006046Y005125D02*
X003836Y005125D01*
X003836Y004966D02*
X008014Y004966D01*
X008031Y004925D02*
X008161Y004795D01*
X008330Y004725D01*
X009033Y004725D01*
X009202Y004795D01*
X009331Y004925D01*
X009401Y005094D01*
X009401Y005277D01*
X009331Y005446D01*
X009202Y005575D01*
X009033Y005645D01*
X008330Y005645D01*
X008161Y005575D01*
X008031Y005446D01*
X007961Y005277D01*
X007961Y005094D01*
X008031Y004925D01*
X008149Y004807D02*
X003836Y004807D01*
X003836Y004649D02*
X018611Y004649D01*
X018625Y003539D02*
X016478Y003539D01*
X016372Y003645D02*
X015991Y003645D01*
X015721Y003376D01*
X015721Y002995D01*
X015991Y002725D01*
X016372Y002725D01*
X016641Y002995D01*
X016641Y003376D01*
X016372Y003645D01*
X016637Y003381D02*
X018691Y003381D01*
X018839Y003222D02*
X016641Y003222D01*
X016641Y003064D02*
X018782Y003064D01*
X018676Y002905D02*
X016552Y002905D01*
X016393Y002746D02*
X018634Y002746D01*
X018640Y002588D02*
X012172Y002588D01*
X012084Y002746D02*
X015970Y002746D01*
X015811Y002905D02*
X012312Y002905D01*
X012331Y002925D02*
X012401Y003094D01*
X012401Y003277D01*
X012331Y003446D01*
X012202Y003575D01*
X012033Y003645D01*
X011330Y003645D01*
X011161Y003575D01*
X011031Y003446D01*
X010961Y003277D01*
X010961Y003094D01*
X011031Y002925D01*
X011161Y002795D01*
X011330Y002725D01*
X012033Y002725D01*
X012202Y002795D01*
X012331Y002925D01*
X012389Y003064D02*
X015721Y003064D01*
X015721Y003222D02*
X012401Y003222D01*
X012358Y003381D02*
X015726Y003381D01*
X015885Y003539D02*
X012238Y003539D01*
X012338Y002429D02*
X018695Y002429D01*
X018818Y002271D02*
X012401Y002271D01*
X012401Y002112D02*
X018802Y002112D01*
X018676Y001954D02*
X012343Y001954D01*
X012202Y001795D02*
X012033Y001725D01*
X011330Y001725D01*
X011161Y001795D01*
X011019Y001954D02*
X009343Y001954D01*
X009401Y002112D02*
X010961Y002112D01*
X010961Y002271D02*
X009401Y002271D01*
X009338Y002429D02*
X011025Y002429D01*
X011191Y002588D02*
X009172Y002588D01*
X009084Y002746D02*
X011279Y002746D01*
X011051Y002905D02*
X009312Y002905D01*
X009389Y003064D02*
X010974Y003064D01*
X010961Y003222D02*
X009401Y003222D01*
X009358Y003381D02*
X011004Y003381D01*
X011125Y003539D02*
X009238Y003539D01*
X009263Y003856D02*
X011100Y003856D01*
X010994Y004015D02*
X009369Y004015D01*
X009401Y004173D02*
X010961Y004173D01*
X010984Y004332D02*
X009379Y004332D01*
X009287Y004490D02*
X011076Y004490D01*
X011149Y004807D02*
X009214Y004807D01*
X009348Y004966D02*
X011014Y004966D01*
X010961Y005125D02*
X009401Y005125D01*
X009399Y005283D02*
X010964Y005283D01*
X011030Y005442D02*
X009333Y005442D01*
X009142Y005600D02*
X011221Y005600D01*
X011310Y005759D02*
X009113Y005759D01*
X009033Y005725D02*
X009202Y005795D01*
X009331Y005925D01*
X009401Y006094D01*
X009401Y006277D01*
X009331Y006446D01*
X009202Y006575D01*
X009033Y006645D01*
X008330Y006645D01*
X008161Y006575D01*
X008031Y006446D01*
X007961Y006277D01*
X007961Y006094D01*
X008031Y005925D01*
X008161Y005795D01*
X008330Y005725D01*
X009033Y005725D01*
X009324Y005917D02*
X011072Y005917D01*
X010994Y006076D02*
X009394Y006076D01*
X009401Y006234D02*
X010984Y006234D01*
X011033Y006393D02*
X009353Y006393D01*
X009226Y006551D02*
X011177Y006551D01*
X011330Y006725D02*
X011161Y006795D01*
X011031Y006925D01*
X010961Y007094D01*
X010961Y007277D01*
X011031Y007446D01*
X011161Y007575D01*
X011330Y007645D01*
X012033Y007645D01*
X012202Y007575D01*
X012331Y007446D01*
X012401Y007277D01*
X012401Y007094D01*
X012331Y006925D01*
X012202Y006795D01*
X012033Y006725D01*
X011330Y006725D01*
X011088Y006869D02*
X009275Y006869D01*
X009331Y006925D02*
X009202Y006795D01*
X009033Y006725D01*
X008330Y006725D01*
X008161Y006795D01*
X008031Y006925D01*
X007961Y007094D01*
X007961Y007277D01*
X008031Y007446D01*
X008161Y007575D01*
X008330Y007645D01*
X009033Y007645D01*
X009202Y007575D01*
X009331Y007446D01*
X009401Y007277D01*
X009401Y007094D01*
X009331Y006925D01*
X009374Y007027D02*
X010989Y007027D01*
X010961Y007186D02*
X009401Y007186D01*
X009374Y007344D02*
X010989Y007344D01*
X011088Y007503D02*
X009275Y007503D01*
X009110Y007778D02*
X009172Y007809D01*
X009228Y007850D01*
X009277Y007899D01*
X009318Y007955D01*
X009349Y008016D01*
X009371Y008082D01*
X009381Y008151D01*
X009381Y008185D01*
X008682Y008185D01*
X008682Y007745D01*
X008976Y007745D01*
X009044Y007756D01*
X009110Y007778D01*
X009187Y007820D02*
X011136Y007820D01*
X009992Y007978D02*
X009330Y007978D01*
X009379Y008137D02*
X009834Y008137D01*
X009675Y008295D02*
X009368Y008295D01*
X008682Y008137D02*
X008681Y008137D01*
X008681Y007978D02*
X008682Y007978D01*
X008681Y007820D02*
X008682Y007820D01*
X008176Y007820D02*
X006751Y007820D01*
X006751Y007978D02*
X008033Y007978D01*
X007984Y008137D02*
X006751Y008137D01*
X006751Y007661D02*
X013224Y007661D01*
X013156Y007503D02*
X012275Y007503D01*
X012374Y007344D02*
X013156Y007344D01*
X013156Y007186D02*
X012401Y007186D01*
X012374Y007027D02*
X013156Y007027D01*
X013156Y006869D02*
X012275Y006869D01*
X012110Y006593D02*
X012044Y006614D01*
X011976Y006625D01*
X011682Y006625D01*
X011682Y006186D01*
X012381Y006186D01*
X012381Y006220D01*
X012371Y006288D01*
X012349Y006354D01*
X012318Y006416D01*
X012277Y006472D01*
X012228Y006521D01*
X012172Y006562D01*
X012110Y006593D01*
X012186Y006551D02*
X013333Y006551D01*
X013224Y006710D02*
X006731Y006710D01*
X006716Y006551D02*
X008137Y006551D01*
X008010Y006393D02*
X006649Y006393D01*
X006496Y006234D02*
X007961Y006234D01*
X007969Y006076D02*
X006597Y006076D01*
X006702Y005917D02*
X008039Y005917D01*
X008249Y005759D02*
X006751Y005759D01*
X006751Y005600D02*
X008221Y005600D01*
X008030Y005442D02*
X006697Y005442D01*
X006585Y005283D02*
X007964Y005283D01*
X007961Y005125D02*
X006317Y005125D01*
X006700Y006869D02*
X008088Y006869D01*
X007989Y007027D02*
X006613Y007027D01*
X006705Y007186D02*
X007961Y007186D01*
X007989Y007344D02*
X006751Y007344D01*
X006751Y007503D02*
X008088Y007503D01*
X009399Y009088D02*
X009883Y009088D01*
X009823Y008930D02*
X010067Y008930D01*
X009724Y009247D02*
X009401Y009247D01*
X009348Y009405D02*
X009565Y009405D01*
X009379Y010039D02*
X010354Y010039D01*
X010273Y010198D02*
X009401Y010198D01*
X009368Y010356D02*
X010114Y010356D01*
X010822Y010515D02*
X011101Y010515D01*
X011075Y009881D02*
X010883Y009881D01*
X011149Y009564D02*
X010199Y009564D01*
X010469Y011466D02*
X011052Y011466D01*
X011280Y011625D02*
X010540Y011625D01*
X010675Y011783D02*
X011190Y011783D01*
X011024Y011942D02*
X010834Y011942D01*
X010840Y011948D02*
X010840Y011948D01*
X010949Y012100D02*
X010961Y012100D01*
X010961Y012259D02*
X010961Y012259D01*
X010961Y012418D02*
X011020Y012418D01*
X010961Y012576D02*
X011163Y012576D01*
X011307Y012735D02*
X010961Y012735D01*
X010961Y012893D02*
X011063Y012893D01*
X010979Y013052D02*
X010961Y013052D01*
X010961Y013210D02*
X010961Y013210D01*
X010961Y013369D02*
X011000Y013369D01*
X010961Y013527D02*
X011113Y013527D01*
X010961Y013686D02*
X014901Y013686D01*
X015461Y013686D02*
X019666Y013686D01*
X019666Y013844D02*
X015461Y013844D01*
X015461Y014003D02*
X019666Y014003D01*
X019666Y014162D02*
X015461Y014162D01*
X015461Y014320D02*
X016396Y014320D01*
X016491Y014225D02*
X016872Y014225D01*
X017141Y014495D01*
X017141Y014876D01*
X016872Y015145D01*
X016491Y015145D01*
X016221Y014876D01*
X016221Y014495D01*
X016491Y014225D01*
X016238Y014479D02*
X015461Y014479D01*
X015461Y014637D02*
X016221Y014637D01*
X016221Y014796D02*
X015461Y014796D01*
X015461Y014954D02*
X016300Y014954D01*
X016458Y015113D02*
X015505Y015113D01*
X015663Y015271D02*
X019666Y015271D01*
X019666Y015113D02*
X018904Y015113D01*
X018872Y015145D02*
X018491Y015145D01*
X018221Y014876D01*
X018221Y014495D01*
X018491Y014225D01*
X018872Y014225D01*
X019141Y014495D01*
X019141Y014876D01*
X018872Y015145D01*
X019063Y014954D02*
X019666Y014954D01*
X019666Y014796D02*
X019141Y014796D01*
X019141Y014637D02*
X019666Y014637D01*
X019666Y014479D02*
X019125Y014479D01*
X018967Y014320D02*
X019666Y014320D01*
X019666Y013527D02*
X016462Y013527D01*
X016364Y013625D02*
X016182Y013625D01*
X016182Y013186D01*
X016181Y013186D01*
X016181Y013625D01*
X015999Y013625D01*
X015741Y013368D01*
X015741Y013186D01*
X016181Y013186D01*
X016181Y013185D01*
X015741Y013185D01*
X015741Y013003D01*
X015999Y012745D01*
X016181Y012745D01*
X016181Y013185D01*
X016182Y013185D01*
X016182Y013186D01*
X016621Y013186D01*
X016621Y013368D01*
X016364Y013625D01*
X016182Y013527D02*
X016181Y013527D01*
X016181Y013369D02*
X016182Y013369D01*
X016181Y013210D02*
X016182Y013210D01*
X016182Y013185D02*
X016621Y013185D01*
X016621Y013003D01*
X016364Y012745D01*
X016182Y012745D01*
X016182Y013185D01*
X016181Y013052D02*
X016182Y013052D01*
X016181Y012893D02*
X016182Y012893D01*
X016441Y012576D02*
X019666Y012576D01*
X019666Y012418D02*
X016600Y012418D01*
X016641Y012259D02*
X019666Y012259D01*
X019666Y012100D02*
X016641Y012100D01*
X016589Y011942D02*
X019666Y011942D01*
X019666Y011783D02*
X016461Y011783D01*
X016461Y011625D02*
X019666Y011625D01*
X019666Y011466D02*
X016461Y011466D01*
X016461Y011308D02*
X019666Y011308D01*
X018622Y011149D02*
X016461Y011149D01*
X016461Y010991D02*
X018611Y010991D01*
X018611Y010832D02*
X016461Y010832D01*
X016461Y010674D02*
X018611Y010674D01*
X018611Y010515D02*
X016407Y010515D01*
X016249Y010356D02*
X018611Y010356D01*
X018646Y010198D02*
X016090Y010198D01*
X015931Y010039D02*
X018729Y010039D01*
X018645Y009881D02*
X014527Y009881D01*
X014502Y010515D02*
X015615Y010515D01*
X015901Y010832D02*
X015265Y010832D01*
X015461Y012418D02*
X015763Y012418D01*
X015922Y012576D02*
X015461Y012576D01*
X015461Y012735D02*
X019666Y012735D01*
X019666Y012893D02*
X016511Y012893D01*
X016621Y013052D02*
X019666Y013052D01*
X019666Y013210D02*
X016621Y013210D01*
X016620Y013369D02*
X019666Y013369D01*
X018396Y014320D02*
X016967Y014320D01*
X017125Y014479D02*
X018238Y014479D01*
X018221Y014637D02*
X017141Y014637D01*
X017141Y014796D02*
X018221Y014796D01*
X018300Y014954D02*
X017063Y014954D01*
X016904Y015113D02*
X018458Y015113D01*
X019666Y015430D02*
X015822Y015430D01*
X015980Y015588D02*
X019666Y015588D01*
X019666Y015747D02*
X016139Y015747D01*
X016298Y015906D02*
X019666Y015906D01*
X019666Y016064D02*
X016456Y016064D01*
X016615Y016223D02*
X019666Y016223D01*
X019666Y016381D02*
X016773Y016381D01*
X016932Y016540D02*
X019666Y016540D01*
X019666Y016698D02*
X017090Y016698D01*
X017249Y016857D02*
X019666Y016857D01*
X019666Y017015D02*
X017407Y017015D01*
X017250Y017649D02*
X017141Y017649D01*
X017141Y017808D02*
X017408Y017808D01*
X017051Y017967D02*
X018312Y017967D01*
X018471Y018125D02*
X016892Y018125D01*
X016471Y018125D02*
X014517Y018125D01*
X014359Y017967D02*
X016312Y017967D01*
X016221Y017808D02*
X014200Y017808D01*
X013725Y018125D02*
X012141Y018125D01*
X012141Y018284D02*
X013884Y018284D01*
X014042Y018442D02*
X012075Y018442D01*
X011916Y018601D02*
X014201Y018601D01*
X014359Y018759D02*
X011878Y018759D01*
X011682Y018759D02*
X011681Y018759D01*
X012036Y018918D02*
X014518Y018918D01*
X014677Y019076D02*
X012121Y019076D01*
X012113Y017967D02*
X013567Y017967D01*
X013408Y017808D02*
X011955Y017808D01*
X011250Y017967D02*
X010176Y017967D01*
X010017Y018125D02*
X011221Y018125D01*
X013661Y019235D02*
X013701Y019235D01*
X013701Y019393D02*
X013661Y019393D01*
X013661Y019552D02*
X013701Y019552D01*
X014231Y019552D02*
X015120Y019552D01*
X015111Y019711D02*
X014231Y019711D01*
X014231Y019869D02*
X015141Y019869D01*
X015218Y020028D02*
X014231Y020028D01*
X014231Y019393D02*
X014994Y019393D01*
X014835Y019235D02*
X014213Y019235D01*
X010175Y014796D02*
X009202Y014796D01*
X009053Y014637D02*
X010334Y014637D01*
X010401Y014479D02*
X009299Y014479D01*
X009384Y014320D02*
X010401Y014320D01*
X010401Y014162D02*
X009401Y014162D01*
X009364Y014003D02*
X010401Y014003D01*
X010401Y013844D02*
X009251Y013844D01*
X010961Y013844D02*
X011142Y013844D01*
X011020Y014003D02*
X010961Y014003D01*
X010961Y014162D02*
X010981Y014162D01*
X010961Y014320D02*
X011003Y014320D01*
X011681Y014320D02*
X011682Y014320D01*
X011681Y014162D02*
X011682Y014162D01*
X011681Y014003D02*
X011682Y014003D01*
X011681Y013844D02*
X011682Y013844D01*
X011681Y014479D02*
X011682Y014479D01*
X012363Y013369D02*
X013721Y013369D01*
X013721Y013210D02*
X012401Y013210D01*
X012384Y013052D02*
X013721Y013052D01*
X013823Y012893D02*
X012300Y012893D01*
X015461Y012893D02*
X015851Y012893D01*
X015741Y013052D02*
X015461Y013052D01*
X015461Y013210D02*
X015741Y013210D01*
X015743Y013369D02*
X015461Y013369D01*
X015461Y013527D02*
X015901Y013527D01*
X011682Y006551D02*
X011681Y006551D01*
X011681Y006393D02*
X011682Y006393D01*
X011681Y006234D02*
X011682Y006234D01*
X011681Y006076D02*
X011682Y006076D01*
X011681Y005917D02*
X011682Y005917D01*
X011681Y005759D02*
X011682Y005759D01*
X012290Y005917D02*
X013252Y005917D01*
X013187Y006076D02*
X012368Y006076D01*
X012379Y006234D02*
X013178Y006234D01*
X013220Y006393D02*
X012329Y006393D01*
X008076Y004490D02*
X003836Y004490D01*
X003836Y004332D02*
X007984Y004332D01*
X007961Y004173D02*
X003836Y004173D01*
X003836Y004015D02*
X007994Y004015D01*
X008161Y001795D02*
X008330Y001725D01*
X009033Y001725D01*
X009202Y001795D01*
X005438Y002588D02*
X003836Y002588D01*
X003836Y002429D02*
X005303Y002429D01*
X005211Y002271D02*
X004858Y002271D01*
X005017Y002112D02*
X005065Y002112D01*
X004576Y002112D02*
X004536Y002112D01*
X004536Y001954D02*
X004576Y001954D01*
X004576Y002271D02*
X004536Y002271D01*
X004255Y002271D02*
X003902Y002271D01*
X004048Y002112D02*
X004096Y002112D01*
X004118Y001478D02*
X004030Y001478D01*
X003861Y001320D02*
X004308Y001320D01*
X004536Y001320D02*
X004576Y001320D01*
X004576Y001478D02*
X004536Y001478D01*
X004536Y001637D02*
X004576Y001637D01*
X005144Y001002D02*
X019666Y001002D01*
X019666Y001161D02*
X019405Y001161D01*
X019622Y001320D02*
X019666Y001320D01*
X018958Y001161D02*
X005303Y001161D01*
X003252Y001320D02*
X002861Y001320D01*
X003030Y001478D02*
X003083Y001478D01*
X002556Y001810D02*
X002556Y009685D01*
X003836Y010198D02*
X005849Y010198D01*
X005697Y010356D02*
X003836Y010356D01*
X003836Y010515D02*
X005546Y010515D01*
X005394Y010674D02*
X003836Y010674D01*
X003836Y010832D02*
X005243Y010832D01*
X005091Y010991D02*
X003836Y010991D01*
X003836Y011149D02*
X004940Y011149D01*
X004788Y011308D02*
X003836Y011308D01*
X003905Y011466D02*
X004637Y011466D01*
X004485Y011625D02*
X003915Y011625D01*
X003840Y011783D02*
X004334Y011783D01*
X004182Y011942D02*
X001231Y011942D01*
X001153Y012100D02*
X004031Y012100D01*
X007296Y011466D02*
X008052Y011466D01*
X007974Y011308D02*
X007455Y011308D01*
X007613Y011149D02*
X007961Y011149D01*
X008004Y010991D02*
X007772Y010991D01*
X000451Y006234D02*
X000381Y006234D01*
X003048Y002112D02*
X003065Y002112D01*
M02*
