G75*
G70*
%OFA0B0*%
%FSLAX24Y24*%
%IPPOS*%
%LPD*%
%AMOC8*
5,1,8,0,0,1.08239X$1,22.5*
%
%ADD10C,0.0000*%
%ADD11C,0.0560*%
%ADD12OC8,0.0560*%
%ADD13R,0.0780X0.0780*%
%ADD14C,0.0780*%
%ADD15C,0.0555*%
%ADD16C,0.1162*%
%ADD17R,0.0690X0.0690*%
%ADD18C,0.0690*%
%ADD19C,0.0640*%
D10*
X000181Y000685D02*
X000181Y020370D01*
X019866Y020370D01*
X019866Y000685D01*
X000181Y000685D01*
D11*
X008421Y002185D02*
X008941Y002185D01*
X008941Y003185D02*
X008421Y003185D01*
X008421Y004185D02*
X008941Y004185D01*
X008941Y005185D02*
X008421Y005185D01*
X008421Y006185D02*
X008941Y006185D01*
X008941Y007185D02*
X008421Y007185D01*
X008421Y008185D02*
X008941Y008185D01*
X008941Y009185D02*
X008421Y009185D01*
X008421Y010185D02*
X008941Y010185D01*
X008941Y011185D02*
X008421Y011185D01*
X008421Y012185D02*
X008941Y012185D01*
X008941Y013185D02*
X008421Y013185D01*
X008421Y014185D02*
X008941Y014185D01*
X008941Y015185D02*
X008421Y015185D01*
X011421Y015185D02*
X011941Y015185D01*
X011941Y014185D02*
X011421Y014185D01*
X011421Y013185D02*
X011941Y013185D01*
X011941Y012185D02*
X011421Y012185D01*
X011421Y011185D02*
X011941Y011185D01*
X011941Y010185D02*
X011421Y010185D01*
X011421Y009185D02*
X011941Y009185D01*
X011941Y008185D02*
X011421Y008185D01*
X011421Y007185D02*
X011941Y007185D01*
X011941Y006185D02*
X011421Y006185D01*
X011421Y005185D02*
X011941Y005185D01*
X011941Y004185D02*
X011421Y004185D01*
X011421Y003185D02*
X011941Y003185D01*
X011941Y002185D02*
X011421Y002185D01*
D12*
X016181Y003185D03*
X016181Y006185D03*
X016181Y007685D03*
X016181Y008685D03*
X014181Y010185D03*
X016181Y012185D03*
X016181Y013185D03*
X016681Y014685D03*
X018681Y014685D03*
X018681Y017685D03*
X016681Y017685D03*
X014681Y017185D03*
X013681Y015185D03*
X013681Y014185D03*
X014181Y013185D03*
X011681Y017185D03*
X011681Y018185D03*
X011681Y019185D03*
X009806Y017685D03*
X009806Y016685D03*
X008681Y019185D03*
X007681Y019185D03*
X006556Y003310D03*
X005556Y003310D03*
D13*
X006556Y001810D03*
X006181Y007685D03*
X000806Y009685D03*
X000806Y014560D03*
X000806Y004685D03*
X013681Y019685D03*
X017181Y019685D03*
X019181Y010685D03*
X019181Y004685D03*
D14*
X019181Y003685D03*
X019181Y002685D03*
X019181Y001685D03*
X019181Y007685D03*
X019181Y008685D03*
X019181Y009685D03*
X019181Y019685D03*
X015681Y019685D03*
X006181Y006685D03*
X006181Y005685D03*
X005556Y001810D03*
X004556Y001810D03*
X003556Y001810D03*
X002556Y001810D03*
X000806Y001685D03*
X000806Y002685D03*
X000806Y003685D03*
X000806Y006685D03*
X000806Y007685D03*
X000806Y008685D03*
X000806Y011560D03*
X000806Y012560D03*
X000806Y013560D03*
D15*
X001606Y016585D03*
X001976Y017205D03*
X002306Y016585D03*
X002976Y016585D03*
X002666Y017205D03*
D16*
X003743Y018685D03*
X000869Y018685D03*
D17*
X007931Y017685D03*
X013681Y007185D03*
D18*
X013681Y006185D03*
X007931Y016685D03*
D19*
X006356Y017185D02*
X005756Y017185D01*
X005756Y018185D02*
X006356Y018185D01*
X006356Y019185D02*
X005756Y019185D01*
M02*
